%TF.GenerationSoftware,KiCad,Pcbnew,5.1.9+dfsg1-1*%
%TF.CreationDate,2021-05-25T18:36:33+02:00*%
%TF.ProjectId,vscp-din-wireless-esp8266-flat,76736370-2d64-4696-9e2d-776972656c65,rev?*%
%TF.SameCoordinates,Original*%
%TF.FileFunction,Copper,L1,Top*%
%TF.FilePolarity,Positive*%
%FSLAX46Y46*%
G04 Gerber Fmt 4.6, Leading zero omitted, Abs format (unit mm)*
G04 Created by KiCad (PCBNEW 5.1.9+dfsg1-1) date 2021-05-25 18:36:33*
%MOMM*%
%LPD*%
G01*
G04 APERTURE LIST*
%TA.AperFunction,ComponentPad*%
%ADD10O,1.700000X1.700000*%
%TD*%
%TA.AperFunction,ComponentPad*%
%ADD11R,1.700000X1.700000*%
%TD*%
%TA.AperFunction,SMDPad,CuDef*%
%ADD12R,2.500000X1.000000*%
%TD*%
%TA.AperFunction,SMDPad,CuDef*%
%ADD13R,1.000000X1.800000*%
%TD*%
%TA.AperFunction,ComponentPad*%
%ADD14R,1.500000X1.050000*%
%TD*%
%TA.AperFunction,ComponentPad*%
%ADD15O,1.500000X1.050000*%
%TD*%
%TA.AperFunction,ComponentPad*%
%ADD16C,1.800000*%
%TD*%
%TA.AperFunction,ComponentPad*%
%ADD17R,1.800000X1.800000*%
%TD*%
%TA.AperFunction,ComponentPad*%
%ADD18C,1.600000*%
%TD*%
%TA.AperFunction,ComponentPad*%
%ADD19R,1.600000X1.600000*%
%TD*%
%TA.AperFunction,ViaPad*%
%ADD20C,0.800000*%
%TD*%
%TA.AperFunction,Conductor*%
%ADD21C,0.250000*%
%TD*%
%TA.AperFunction,Conductor*%
%ADD22C,1.000000*%
%TD*%
%TA.AperFunction,Conductor*%
%ADD23C,0.254000*%
%TD*%
%TA.AperFunction,Conductor*%
%ADD24C,0.100000*%
%TD*%
G04 APERTURE END LIST*
D10*
%TO.P,J1,12*%
%TO.N,GND*%
X150787100Y-116306600D03*
%TO.P,J1,11*%
%TO.N,/gpio9*%
X148247100Y-116306600D03*
%TO.P,J1,10*%
%TO.N,/SCLK*%
X145707100Y-116306600D03*
%TO.P,J1,9*%
%TO.N,/MOSI*%
X143167100Y-116306600D03*
%TO.P,J1,8*%
%TO.N,/MISO*%
X140627100Y-116306600D03*
%TO.P,J1,7*%
%TO.N,/CS0*%
X138087100Y-116306600D03*
%TO.P,J1,6*%
%TO.N,/gpio13*%
X135547100Y-116306600D03*
%TO.P,J1,5*%
%TO.N,/gpio12*%
X133007100Y-116306600D03*
%TO.P,J1,4*%
%TO.N,/gpio14*%
X130467100Y-116306600D03*
%TO.P,J1,3*%
%TO.N,/adc*%
X127927100Y-116306600D03*
%TO.P,J1,2*%
%TO.N,VDD*%
X125387100Y-116306600D03*
D11*
%TO.P,J1,1*%
%TO.N,VCC*%
X122847100Y-116306600D03*
%TD*%
%TO.P,C1,2*%
%TO.N,GND*%
%TA.AperFunction,SMDPad,CuDef*%
G36*
G01*
X123641700Y-62669400D02*
X123641700Y-63619400D01*
G75*
G02*
X123391700Y-63869400I-250000J0D01*
G01*
X122891700Y-63869400D01*
G75*
G02*
X122641700Y-63619400I0J250000D01*
G01*
X122641700Y-62669400D01*
G75*
G02*
X122891700Y-62419400I250000J0D01*
G01*
X123391700Y-62419400D01*
G75*
G02*
X123641700Y-62669400I0J-250000D01*
G01*
G37*
%TD.AperFunction*%
%TO.P,C1,1*%
%TO.N,VCC*%
%TA.AperFunction,SMDPad,CuDef*%
G36*
G01*
X125541700Y-62669400D02*
X125541700Y-63619400D01*
G75*
G02*
X125291700Y-63869400I-250000J0D01*
G01*
X124791700Y-63869400D01*
G75*
G02*
X124541700Y-63619400I0J250000D01*
G01*
X124541700Y-62669400D01*
G75*
G02*
X124791700Y-62419400I250000J0D01*
G01*
X125291700Y-62419400D01*
G75*
G02*
X125541700Y-62669400I0J-250000D01*
G01*
G37*
%TD.AperFunction*%
%TD*%
%TO.P,C4,2*%
%TO.N,GND*%
%TA.AperFunction,SMDPad,CuDef*%
G36*
G01*
X125570400Y-106812100D02*
X125570400Y-105862100D01*
G75*
G02*
X125820400Y-105612100I250000J0D01*
G01*
X126320400Y-105612100D01*
G75*
G02*
X126570400Y-105862100I0J-250000D01*
G01*
X126570400Y-106812100D01*
G75*
G02*
X126320400Y-107062100I-250000J0D01*
G01*
X125820400Y-107062100D01*
G75*
G02*
X125570400Y-106812100I0J250000D01*
G01*
G37*
%TD.AperFunction*%
%TO.P,C4,1*%
%TO.N,VDD*%
%TA.AperFunction,SMDPad,CuDef*%
G36*
G01*
X123670400Y-106812100D02*
X123670400Y-105862100D01*
G75*
G02*
X123920400Y-105612100I250000J0D01*
G01*
X124420400Y-105612100D01*
G75*
G02*
X124670400Y-105862100I0J-250000D01*
G01*
X124670400Y-106812100D01*
G75*
G02*
X124420400Y-107062100I-250000J0D01*
G01*
X123920400Y-107062100D01*
G75*
G02*
X123670400Y-106812100I0J250000D01*
G01*
G37*
%TD.AperFunction*%
%TD*%
%TO.P,C3,2*%
%TO.N,GND*%
%TA.AperFunction,SMDPad,CuDef*%
G36*
G01*
X120843000Y-50996000D02*
X121793000Y-50996000D01*
G75*
G02*
X122043000Y-51246000I0J-250000D01*
G01*
X122043000Y-51746000D01*
G75*
G02*
X121793000Y-51996000I-250000J0D01*
G01*
X120843000Y-51996000D01*
G75*
G02*
X120593000Y-51746000I0J250000D01*
G01*
X120593000Y-51246000D01*
G75*
G02*
X120843000Y-50996000I250000J0D01*
G01*
G37*
%TD.AperFunction*%
%TO.P,C3,1*%
%TO.N,/RESET*%
%TA.AperFunction,SMDPad,CuDef*%
G36*
G01*
X120843000Y-49096000D02*
X121793000Y-49096000D01*
G75*
G02*
X122043000Y-49346000I0J-250000D01*
G01*
X122043000Y-49846000D01*
G75*
G02*
X121793000Y-50096000I-250000J0D01*
G01*
X120843000Y-50096000D01*
G75*
G02*
X120593000Y-49846000I0J250000D01*
G01*
X120593000Y-49346000D01*
G75*
G02*
X120843000Y-49096000I250000J0D01*
G01*
G37*
%TD.AperFunction*%
%TD*%
D12*
%TO.P,U2,22*%
%TO.N,/TXD*%
X145174000Y-49332000D03*
%TO.P,U2,21*%
%TO.N,/RXD*%
X145174000Y-51332000D03*
%TO.P,U2,20*%
%TO.N,/ledb*%
X145174000Y-53332000D03*
%TO.P,U2,19*%
%TO.N,/leda*%
X145174000Y-55332000D03*
%TO.P,U2,18*%
%TO.N,Net-(R5-Pad2)*%
X145174000Y-57332000D03*
%TO.P,U2,17*%
%TO.N,Net-(R6-Pad2)*%
X145174000Y-59332000D03*
%TO.P,U2,16*%
%TO.N,Net-(R8-Pad2)*%
X145174000Y-61332000D03*
%TO.P,U2,15*%
%TO.N,GND*%
X145174000Y-63332000D03*
D13*
%TO.P,U2,14*%
%TO.N,/SCLK*%
X142574000Y-64832000D03*
%TO.P,U2,13*%
%TO.N,/MOSI*%
X140574000Y-64832000D03*
%TO.P,U2,12*%
%TO.N,Net-(U2-Pad12)*%
X138574000Y-64832000D03*
%TO.P,U2,11*%
%TO.N,/gpio9*%
X136574000Y-64832000D03*
%TO.P,U2,10*%
%TO.N,/MISO*%
X134574000Y-64832000D03*
%TO.P,U2,9*%
%TO.N,/CS0*%
X132574000Y-64832000D03*
D12*
%TO.P,U2,8*%
%TO.N,VCC*%
X129974000Y-63332000D03*
%TO.P,U2,7*%
%TO.N,/gpio13*%
X129974000Y-61332000D03*
%TO.P,U2,6*%
%TO.N,/gpio12*%
X129974000Y-59332000D03*
%TO.P,U2,5*%
%TO.N,/gpio14*%
X129974000Y-57332000D03*
%TO.P,U2,4*%
%TO.N,Net-(R4-Pad2)*%
X129974000Y-55332000D03*
%TO.P,U2,3*%
%TO.N,Net-(R1-Pad2)*%
X129974000Y-53332000D03*
%TO.P,U2,2*%
%TO.N,/adc*%
X129974000Y-51332000D03*
%TO.P,U2,1*%
%TO.N,Net-(R3-Pad1)*%
X129974000Y-49332000D03*
%TD*%
%TO.P,R11,2*%
%TO.N,Net-(D1-Pad2)*%
%TA.AperFunction,SMDPad,CuDef*%
G36*
G01*
X153010002Y-59036000D02*
X152109998Y-59036000D01*
G75*
G02*
X151860000Y-58786002I0J249998D01*
G01*
X151860000Y-58260998D01*
G75*
G02*
X152109998Y-58011000I249998J0D01*
G01*
X153010002Y-58011000D01*
G75*
G02*
X153260000Y-58260998I0J-249998D01*
G01*
X153260000Y-58786002D01*
G75*
G02*
X153010002Y-59036000I-249998J0D01*
G01*
G37*
%TD.AperFunction*%
%TO.P,R11,1*%
%TO.N,VCC*%
%TA.AperFunction,SMDPad,CuDef*%
G36*
G01*
X153010002Y-60861000D02*
X152109998Y-60861000D01*
G75*
G02*
X151860000Y-60611002I0J249998D01*
G01*
X151860000Y-60085998D01*
G75*
G02*
X152109998Y-59836000I249998J0D01*
G01*
X153010002Y-59836000D01*
G75*
G02*
X153260000Y-60085998I0J-249998D01*
G01*
X153260000Y-60611002D01*
G75*
G02*
X153010002Y-60861000I-249998J0D01*
G01*
G37*
%TD.AperFunction*%
%TD*%
%TO.P,R10,2*%
%TO.N,VCC*%
%TA.AperFunction,SMDPad,CuDef*%
G36*
G01*
X120338900Y-97530498D02*
X120338900Y-98430502D01*
G75*
G02*
X120088902Y-98680500I-249998J0D01*
G01*
X119563898Y-98680500D01*
G75*
G02*
X119313900Y-98430502I0J249998D01*
G01*
X119313900Y-97530498D01*
G75*
G02*
X119563898Y-97280500I249998J0D01*
G01*
X120088902Y-97280500D01*
G75*
G02*
X120338900Y-97530498I0J-249998D01*
G01*
G37*
%TD.AperFunction*%
%TO.P,R10,1*%
%TO.N,/RXD*%
%TA.AperFunction,SMDPad,CuDef*%
G36*
G01*
X122163900Y-97530498D02*
X122163900Y-98430502D01*
G75*
G02*
X121913902Y-98680500I-249998J0D01*
G01*
X121388898Y-98680500D01*
G75*
G02*
X121138900Y-98430502I0J249998D01*
G01*
X121138900Y-97530498D01*
G75*
G02*
X121388898Y-97280500I249998J0D01*
G01*
X121913902Y-97280500D01*
G75*
G02*
X122163900Y-97530498I0J-249998D01*
G01*
G37*
%TD.AperFunction*%
%TD*%
%TO.P,R9,2*%
%TO.N,VDD*%
%TA.AperFunction,SMDPad,CuDef*%
G36*
G01*
X120034898Y-101936500D02*
X120934902Y-101936500D01*
G75*
G02*
X121184900Y-102186498I0J-249998D01*
G01*
X121184900Y-102711502D01*
G75*
G02*
X120934902Y-102961500I-249998J0D01*
G01*
X120034898Y-102961500D01*
G75*
G02*
X119784900Y-102711502I0J249998D01*
G01*
X119784900Y-102186498D01*
G75*
G02*
X120034898Y-101936500I249998J0D01*
G01*
G37*
%TD.AperFunction*%
%TO.P,R9,1*%
%TO.N,/TTLRX*%
%TA.AperFunction,SMDPad,CuDef*%
G36*
G01*
X120034898Y-100111500D02*
X120934902Y-100111500D01*
G75*
G02*
X121184900Y-100361498I0J-249998D01*
G01*
X121184900Y-100886502D01*
G75*
G02*
X120934902Y-101136500I-249998J0D01*
G01*
X120034898Y-101136500D01*
G75*
G02*
X119784900Y-100886502I0J249998D01*
G01*
X119784900Y-100361498D01*
G75*
G02*
X120034898Y-100111500I249998J0D01*
G01*
G37*
%TD.AperFunction*%
%TD*%
%TO.P,R8,2*%
%TO.N,Net-(R8-Pad2)*%
%TA.AperFunction,SMDPad,CuDef*%
G36*
G01*
X148692002Y-61830000D02*
X147791998Y-61830000D01*
G75*
G02*
X147542000Y-61580002I0J249998D01*
G01*
X147542000Y-61054998D01*
G75*
G02*
X147791998Y-60805000I249998J0D01*
G01*
X148692002Y-60805000D01*
G75*
G02*
X148942000Y-61054998I0J-249998D01*
G01*
X148942000Y-61580002D01*
G75*
G02*
X148692002Y-61830000I-249998J0D01*
G01*
G37*
%TD.AperFunction*%
%TO.P,R8,1*%
%TO.N,GND*%
%TA.AperFunction,SMDPad,CuDef*%
G36*
G01*
X148692002Y-63655000D02*
X147791998Y-63655000D01*
G75*
G02*
X147542000Y-63405002I0J249998D01*
G01*
X147542000Y-62879998D01*
G75*
G02*
X147791998Y-62630000I249998J0D01*
G01*
X148692002Y-62630000D01*
G75*
G02*
X148942000Y-62879998I0J-249998D01*
G01*
X148942000Y-63405002D01*
G75*
G02*
X148692002Y-63655000I-249998J0D01*
G01*
G37*
%TD.AperFunction*%
%TD*%
%TO.P,R7,2*%
%TO.N,/FLASH*%
%TA.AperFunction,SMDPad,CuDef*%
G36*
G01*
X121774000Y-66097998D02*
X121774000Y-66998002D01*
G75*
G02*
X121524002Y-67248000I-249998J0D01*
G01*
X120998998Y-67248000D01*
G75*
G02*
X120749000Y-66998002I0J249998D01*
G01*
X120749000Y-66097998D01*
G75*
G02*
X120998998Y-65848000I249998J0D01*
G01*
X121524002Y-65848000D01*
G75*
G02*
X121774000Y-66097998I0J-249998D01*
G01*
G37*
%TD.AperFunction*%
%TO.P,R7,1*%
%TO.N,Net-(R5-Pad2)*%
%TA.AperFunction,SMDPad,CuDef*%
G36*
G01*
X123599000Y-66097998D02*
X123599000Y-66998002D01*
G75*
G02*
X123349002Y-67248000I-249998J0D01*
G01*
X122823998Y-67248000D01*
G75*
G02*
X122574000Y-66998002I0J249998D01*
G01*
X122574000Y-66097998D01*
G75*
G02*
X122823998Y-65848000I249998J0D01*
G01*
X123349002Y-65848000D01*
G75*
G02*
X123599000Y-66097998I0J-249998D01*
G01*
G37*
%TD.AperFunction*%
%TD*%
%TO.P,R6,2*%
%TO.N,Net-(R6-Pad2)*%
%TA.AperFunction,SMDPad,CuDef*%
G36*
G01*
X152922000Y-62287998D02*
X152922000Y-63188002D01*
G75*
G02*
X152672002Y-63438000I-249998J0D01*
G01*
X152146998Y-63438000D01*
G75*
G02*
X151897000Y-63188002I0J249998D01*
G01*
X151897000Y-62287998D01*
G75*
G02*
X152146998Y-62038000I249998J0D01*
G01*
X152672002Y-62038000D01*
G75*
G02*
X152922000Y-62287998I0J-249998D01*
G01*
G37*
%TD.AperFunction*%
%TO.P,R6,1*%
%TO.N,VCC*%
%TA.AperFunction,SMDPad,CuDef*%
G36*
G01*
X154747000Y-62287998D02*
X154747000Y-63188002D01*
G75*
G02*
X154497002Y-63438000I-249998J0D01*
G01*
X153971998Y-63438000D01*
G75*
G02*
X153722000Y-63188002I0J249998D01*
G01*
X153722000Y-62287998D01*
G75*
G02*
X153971998Y-62038000I249998J0D01*
G01*
X154497002Y-62038000D01*
G75*
G02*
X154747000Y-62287998I0J-249998D01*
G01*
G37*
%TD.AperFunction*%
%TD*%
%TO.P,R5,2*%
%TO.N,Net-(R5-Pad2)*%
%TA.AperFunction,SMDPad,CuDef*%
G36*
G01*
X148604000Y-58731998D02*
X148604000Y-59632002D01*
G75*
G02*
X148354002Y-59882000I-249998J0D01*
G01*
X147828998Y-59882000D01*
G75*
G02*
X147579000Y-59632002I0J249998D01*
G01*
X147579000Y-58731998D01*
G75*
G02*
X147828998Y-58482000I249998J0D01*
G01*
X148354002Y-58482000D01*
G75*
G02*
X148604000Y-58731998I0J-249998D01*
G01*
G37*
%TD.AperFunction*%
%TO.P,R5,1*%
%TO.N,VCC*%
%TA.AperFunction,SMDPad,CuDef*%
G36*
G01*
X150429000Y-58731998D02*
X150429000Y-59632002D01*
G75*
G02*
X150179002Y-59882000I-249998J0D01*
G01*
X149653998Y-59882000D01*
G75*
G02*
X149404000Y-59632002I0J249998D01*
G01*
X149404000Y-58731998D01*
G75*
G02*
X149653998Y-58482000I249998J0D01*
G01*
X150179002Y-58482000D01*
G75*
G02*
X150429000Y-58731998I0J-249998D01*
G01*
G37*
%TD.AperFunction*%
%TD*%
%TO.P,R4,2*%
%TO.N,Net-(R4-Pad2)*%
%TA.AperFunction,SMDPad,CuDef*%
G36*
G01*
X122624000Y-74389000D02*
X122624000Y-73439000D01*
G75*
G02*
X122874000Y-73189000I250000J0D01*
G01*
X123374000Y-73189000D01*
G75*
G02*
X123624000Y-73439000I0J-250000D01*
G01*
X123624000Y-74389000D01*
G75*
G02*
X123374000Y-74639000I-250000J0D01*
G01*
X122874000Y-74639000D01*
G75*
G02*
X122624000Y-74389000I0J250000D01*
G01*
G37*
%TD.AperFunction*%
%TO.P,R4,1*%
%TO.N,/RESET*%
%TA.AperFunction,SMDPad,CuDef*%
G36*
G01*
X120724000Y-74389000D02*
X120724000Y-73439000D01*
G75*
G02*
X120974000Y-73189000I250000J0D01*
G01*
X121474000Y-73189000D01*
G75*
G02*
X121724000Y-73439000I0J-250000D01*
G01*
X121724000Y-74389000D01*
G75*
G02*
X121474000Y-74639000I-250000J0D01*
G01*
X120974000Y-74639000D01*
G75*
G02*
X120724000Y-74389000I0J250000D01*
G01*
G37*
%TD.AperFunction*%
%TD*%
%TO.P,R3,2*%
%TO.N,/RESET*%
%TA.AperFunction,SMDPad,CuDef*%
G36*
G01*
X123966000Y-49333998D02*
X123966000Y-50234002D01*
G75*
G02*
X123716002Y-50484000I-249998J0D01*
G01*
X123190998Y-50484000D01*
G75*
G02*
X122941000Y-50234002I0J249998D01*
G01*
X122941000Y-49333998D01*
G75*
G02*
X123190998Y-49084000I249998J0D01*
G01*
X123716002Y-49084000D01*
G75*
G02*
X123966000Y-49333998I0J-249998D01*
G01*
G37*
%TD.AperFunction*%
%TO.P,R3,1*%
%TO.N,Net-(R3-Pad1)*%
%TA.AperFunction,SMDPad,CuDef*%
G36*
G01*
X125791000Y-49333998D02*
X125791000Y-50234002D01*
G75*
G02*
X125541002Y-50484000I-249998J0D01*
G01*
X125015998Y-50484000D01*
G75*
G02*
X124766000Y-50234002I0J249998D01*
G01*
X124766000Y-49333998D01*
G75*
G02*
X125015998Y-49084000I249998J0D01*
G01*
X125541002Y-49084000D01*
G75*
G02*
X125791000Y-49333998I0J-249998D01*
G01*
G37*
%TD.AperFunction*%
%TD*%
%TO.P,R2,2*%
%TO.N,/RESET*%
%TA.AperFunction,SMDPad,CuDef*%
G36*
G01*
X119482002Y-50146000D02*
X118581998Y-50146000D01*
G75*
G02*
X118332000Y-49896002I0J249998D01*
G01*
X118332000Y-49370998D01*
G75*
G02*
X118581998Y-49121000I249998J0D01*
G01*
X119482002Y-49121000D01*
G75*
G02*
X119732000Y-49370998I0J-249998D01*
G01*
X119732000Y-49896002D01*
G75*
G02*
X119482002Y-50146000I-249998J0D01*
G01*
G37*
%TD.AperFunction*%
%TO.P,R2,1*%
%TO.N,VCC*%
%TA.AperFunction,SMDPad,CuDef*%
G36*
G01*
X119482002Y-51971000D02*
X118581998Y-51971000D01*
G75*
G02*
X118332000Y-51721002I0J249998D01*
G01*
X118332000Y-51195998D01*
G75*
G02*
X118581998Y-50946000I249998J0D01*
G01*
X119482002Y-50946000D01*
G75*
G02*
X119732000Y-51195998I0J-249998D01*
G01*
X119732000Y-51721002D01*
G75*
G02*
X119482002Y-51971000I-249998J0D01*
G01*
G37*
%TD.AperFunction*%
%TD*%
%TO.P,R1,2*%
%TO.N,Net-(R1-Pad2)*%
%TA.AperFunction,SMDPad,CuDef*%
G36*
G01*
X124766000Y-53790002D02*
X124766000Y-52889998D01*
G75*
G02*
X125015998Y-52640000I249998J0D01*
G01*
X125541002Y-52640000D01*
G75*
G02*
X125791000Y-52889998I0J-249998D01*
G01*
X125791000Y-53790002D01*
G75*
G02*
X125541002Y-54040000I-249998J0D01*
G01*
X125015998Y-54040000D01*
G75*
G02*
X124766000Y-53790002I0J249998D01*
G01*
G37*
%TD.AperFunction*%
%TO.P,R1,1*%
%TO.N,VCC*%
%TA.AperFunction,SMDPad,CuDef*%
G36*
G01*
X122941000Y-53790002D02*
X122941000Y-52889998D01*
G75*
G02*
X123190998Y-52640000I249998J0D01*
G01*
X123716002Y-52640000D01*
G75*
G02*
X123966000Y-52889998I0J-249998D01*
G01*
X123966000Y-53790002D01*
G75*
G02*
X123716002Y-54040000I-249998J0D01*
G01*
X123190998Y-54040000D01*
G75*
G02*
X122941000Y-53790002I0J249998D01*
G01*
G37*
%TD.AperFunction*%
%TD*%
D14*
%TO.P,Q1,1*%
%TO.N,/RXD*%
X126072900Y-98234500D03*
D15*
%TO.P,Q1,3*%
%TO.N,GND*%
X126072900Y-100774500D03*
%TO.P,Q1,2*%
%TO.N,/TTLRX*%
X126072900Y-99504500D03*
%TD*%
D10*
%TO.P,J4,2*%
%TO.N,VCC*%
X118275100Y-108331000D03*
D11*
%TO.P,J4,1*%
%TO.N,VDD*%
X120815100Y-108331000D03*
%TD*%
D16*
%TO.P,D1,3*%
%TO.N,/ledb*%
X155100000Y-54102000D03*
%TO.P,D1,2*%
%TO.N,Net-(D1-Pad2)*%
X152560000Y-54102000D03*
D17*
%TO.P,D1,1*%
%TO.N,/leda*%
X150020000Y-54102000D03*
%TD*%
%TO.P,C6,2*%
%TO.N,GND*%
%TA.AperFunction,SMDPad,CuDef*%
G36*
G01*
X131373900Y-100070500D02*
X130423900Y-100070500D01*
G75*
G02*
X130173900Y-99820500I0J250000D01*
G01*
X130173900Y-99320500D01*
G75*
G02*
X130423900Y-99070500I250000J0D01*
G01*
X131373900Y-99070500D01*
G75*
G02*
X131623900Y-99320500I0J-250000D01*
G01*
X131623900Y-99820500D01*
G75*
G02*
X131373900Y-100070500I-250000J0D01*
G01*
G37*
%TD.AperFunction*%
%TO.P,C6,1*%
%TO.N,VDD*%
%TA.AperFunction,SMDPad,CuDef*%
G36*
G01*
X131373900Y-101970500D02*
X130423900Y-101970500D01*
G75*
G02*
X130173900Y-101720500I0J250000D01*
G01*
X130173900Y-101220500D01*
G75*
G02*
X130423900Y-100970500I250000J0D01*
G01*
X131373900Y-100970500D01*
G75*
G02*
X131623900Y-101220500I0J-250000D01*
G01*
X131623900Y-101720500D01*
G75*
G02*
X131373900Y-101970500I-250000J0D01*
G01*
G37*
%TD.AperFunction*%
%TD*%
%TO.P,C5,2*%
%TO.N,GND*%
%TA.AperFunction,SMDPad,CuDef*%
G36*
G01*
X133750900Y-99283500D02*
X133750900Y-100233500D01*
G75*
G02*
X133500900Y-100483500I-250000J0D01*
G01*
X133000900Y-100483500D01*
G75*
G02*
X132750900Y-100233500I0J250000D01*
G01*
X132750900Y-99283500D01*
G75*
G02*
X133000900Y-99033500I250000J0D01*
G01*
X133500900Y-99033500D01*
G75*
G02*
X133750900Y-99283500I0J-250000D01*
G01*
G37*
%TD.AperFunction*%
%TO.P,C5,1*%
%TO.N,VCC*%
%TA.AperFunction,SMDPad,CuDef*%
G36*
G01*
X135650900Y-99283500D02*
X135650900Y-100233500D01*
G75*
G02*
X135400900Y-100483500I-250000J0D01*
G01*
X134900900Y-100483500D01*
G75*
G02*
X134650900Y-100233500I0J250000D01*
G01*
X134650900Y-99283500D01*
G75*
G02*
X134900900Y-99033500I250000J0D01*
G01*
X135400900Y-99033500D01*
G75*
G02*
X135650900Y-99283500I0J-250000D01*
G01*
G37*
%TD.AperFunction*%
%TD*%
D18*
%TO.P,C2,2*%
%TO.N,GND*%
X124741300Y-70205600D03*
D19*
%TO.P,C2,1*%
%TO.N,VCC*%
X127241300Y-70205600D03*
%TD*%
D11*
%TO.P,J3,1*%
%TO.N,/FLASH*%
X118010600Y-66395000D03*
D10*
%TO.P,J3,2*%
%TO.N,/TXD*%
X118010600Y-68935000D03*
%TO.P,J3,3*%
%TO.N,/RXD*%
X118010600Y-71475000D03*
%TO.P,J3,4*%
%TO.N,/RESET*%
X118010600Y-74015000D03*
%TO.P,J3,5*%
%TO.N,VCC*%
X118010600Y-76555000D03*
%TO.P,J3,6*%
%TO.N,GND*%
X118010600Y-79095000D03*
%TD*%
D20*
%TO.N,GND*%
X119278400Y-54686200D03*
X141744700Y-54876700D03*
X149136100Y-50419000D03*
X141401800Y-50292000D03*
X117195600Y-49326800D03*
X121285000Y-52615000D03*
X138696700Y-60286900D03*
X120010999Y-61341000D03*
X123164600Y-61518800D03*
X126949200Y-65493900D03*
X141516100Y-89255600D03*
X120307100Y-104800400D03*
X121119900Y-112496600D03*
%TO.N,VCC*%
X138925300Y-68948300D03*
X144475200Y-68999100D03*
%TO.N,/RXD*%
X132240000Y-57658000D03*
X120011000Y-57658000D03*
X118757700Y-99707700D03*
X116725700Y-96888300D03*
%TO.N,Net-(R4-Pad2)*%
X127076200Y-55333900D03*
X122897900Y-72224900D03*
%TO.N,Net-(R5-Pad2)*%
X120738900Y-64719200D03*
X121064000Y-58420000D03*
X134018000Y-57404000D03*
%TO.N,/adc*%
X126974600Y-51333400D03*
%TO.N,/gpio13*%
X132384800Y-61455300D03*
%TO.N,/gpio12*%
X127571500Y-59283600D03*
%TO.N,/gpio14*%
X127914400Y-56451500D03*
X125082300Y-56781700D03*
X126111000Y-59436000D03*
%TO.N,/gpio9*%
X136574000Y-62660000D03*
%TO.N,/MISO*%
X134493000Y-62839600D03*
%TO.N,/CS0*%
X132270500Y-62979300D03*
%TD*%
D21*
%TO.N,GND*%
X133062900Y-99570500D02*
X133250900Y-99758500D01*
D22*
X126072900Y-106334600D02*
X126070400Y-106337100D01*
X126072900Y-100774500D02*
X126072900Y-106334600D01*
D21*
X121285000Y-51529000D02*
X121318000Y-51496000D01*
X121285000Y-52615000D02*
X121285000Y-51529000D01*
D22*
X119278400Y-54686200D02*
X119278400Y-56629300D01*
X119278400Y-56629300D02*
X118719600Y-57188100D01*
D21*
X123164600Y-63121500D02*
X123141700Y-63144400D01*
D22*
X123164600Y-61518800D02*
X123164600Y-63121500D01*
X119910990Y-61240991D02*
X119910990Y-61341000D01*
X118719600Y-60049601D02*
X119910990Y-61240991D01*
X118719600Y-57188100D02*
X118719600Y-60049601D01*
D21*
%TO.N,VCC*%
X119032000Y-51458500D02*
X119032000Y-52578000D01*
D22*
X127434000Y-63332000D02*
X127348000Y-63246000D01*
D21*
X149916500Y-59182000D02*
X150020000Y-59182000D01*
X151186500Y-60348500D02*
X152560000Y-60348500D01*
X150020000Y-59182000D02*
X151186500Y-60348500D01*
X152560000Y-60348500D02*
X153472500Y-60348500D01*
X154234500Y-61110500D02*
X154234500Y-62738000D01*
X153472500Y-60348500D02*
X154234500Y-61110500D01*
D22*
X129888000Y-63246000D02*
X129974000Y-63332000D01*
X127348000Y-63246000D02*
X129888000Y-63246000D01*
X129974000Y-63332000D02*
X129974000Y-66626400D01*
X154234500Y-65361200D02*
X154234500Y-62738000D01*
X152969300Y-66626400D02*
X154234500Y-65361200D01*
X117932200Y-108673900D02*
X118275100Y-108331000D01*
X117932200Y-115570000D02*
X117932200Y-108673900D01*
X135150900Y-99758500D02*
X135150900Y-97089000D01*
X135150900Y-97089000D02*
X133819900Y-95758000D01*
X133819900Y-95758000D02*
X121018300Y-95758000D01*
X119826400Y-96949900D02*
X119826400Y-97980500D01*
X119826400Y-97980500D02*
X118046500Y-97980500D01*
X118046500Y-97980500D02*
X117309900Y-98717100D01*
X117309900Y-107365800D02*
X118275100Y-108331000D01*
X117309900Y-98717100D02*
X117309900Y-107365800D01*
X118010600Y-76555000D02*
X123503000Y-76555000D01*
X123503000Y-93273300D02*
X120459500Y-96316800D01*
X123503000Y-76555000D02*
X123503000Y-93273300D01*
X120459500Y-96316800D02*
X119826400Y-96949900D01*
X121018300Y-95758000D02*
X120459500Y-96316800D01*
X129974000Y-66626400D02*
X134203100Y-66626400D01*
X136525000Y-68948300D02*
X138925300Y-68948300D01*
X134203100Y-66626400D02*
X136525000Y-68948300D01*
X146847900Y-66626400D02*
X152969300Y-66626400D01*
X144475200Y-68999100D02*
X146847900Y-66626400D01*
D21*
X119517150Y-53165852D02*
X119517150Y-53063150D01*
X120655101Y-53607801D02*
X119959099Y-53607801D01*
X120922902Y-53340000D02*
X120655101Y-53607801D01*
X123453500Y-53340000D02*
X120922902Y-53340000D01*
X119959099Y-53607801D02*
X119517150Y-53165852D01*
X119517150Y-53063150D02*
X119794000Y-53340000D01*
X119032000Y-52578000D02*
X119517150Y-53063150D01*
D22*
X123453500Y-58777500D02*
X123453500Y-53340000D01*
X127348000Y-62672000D02*
X123453500Y-58777500D01*
X127348000Y-63246000D02*
X127348000Y-62672000D01*
D21*
X125143300Y-63246000D02*
X125041700Y-63144400D01*
X127348000Y-63246000D02*
X125143300Y-63246000D01*
D22*
X118668800Y-116306600D02*
X117932200Y-115570000D01*
X122847100Y-116306600D02*
X118668800Y-116306600D01*
X127414000Y-63312000D02*
X127348000Y-63246000D01*
X128295560Y-65455640D02*
X127414000Y-63312000D01*
X127533400Y-67132200D02*
X128295560Y-65455640D01*
X127414000Y-72644000D02*
X127533400Y-67132200D01*
X123503000Y-76555000D02*
X127414000Y-72644000D01*
D21*
%TO.N,/RESET*%
X121506000Y-49784000D02*
X121318000Y-49596000D01*
X123453500Y-49784000D02*
X121506000Y-49784000D01*
X119069500Y-49596000D02*
X119032000Y-49633500D01*
X121318000Y-49596000D02*
X119069500Y-49596000D01*
X121123000Y-74015000D02*
X121224000Y-73914000D01*
X118010600Y-74015000D02*
X121123000Y-74015000D01*
X121224000Y-72949398D02*
X121224000Y-73914000D01*
X117636597Y-70299999D02*
X118574601Y-70299999D01*
X116835599Y-69499001D02*
X117636597Y-70299999D01*
X116835599Y-51129901D02*
X116835599Y-69499001D01*
X118574601Y-70299999D02*
X121224000Y-72949398D01*
X118332000Y-49633500D02*
X116835599Y-51129901D01*
X119032000Y-49633500D02*
X118332000Y-49633500D01*
D22*
%TO.N,VDD*%
X131218900Y-101790500D02*
X130898900Y-101470500D01*
X121432200Y-108948100D02*
X120815100Y-108331000D01*
X122809000Y-106337100D02*
X120815100Y-108331000D01*
X124170400Y-106337100D02*
X122809000Y-106337100D01*
X120484900Y-102449000D02*
X122908700Y-102449000D01*
X124170400Y-103710700D02*
X124170400Y-106337100D01*
X122908700Y-102449000D02*
X124170400Y-103710700D01*
X130898900Y-101470500D02*
X130898900Y-105448100D01*
X130898900Y-105448100D02*
X128054100Y-108292900D01*
X124170400Y-107062100D02*
X124170400Y-106337100D01*
X125401200Y-108292900D02*
X124170400Y-107062100D01*
X128054100Y-108292900D02*
X125401200Y-108292900D01*
X125387100Y-108307000D02*
X125401200Y-108292900D01*
X125387100Y-116306600D02*
X125387100Y-108307000D01*
D21*
%TO.N,Net-(D1-Pad2)*%
X152560000Y-58523500D02*
X152560000Y-54102000D01*
%TO.N,/FLASH*%
X118163600Y-66548000D02*
X118010600Y-66395000D01*
X117285609Y-66071609D02*
X117285609Y-66040000D01*
X117609000Y-66395000D02*
X117285609Y-66071609D01*
X118010600Y-66395000D02*
X117609000Y-66395000D01*
X121108500Y-66395000D02*
X121261500Y-66548000D01*
X118010600Y-66395000D02*
X121108500Y-66395000D01*
%TO.N,/TXD*%
X117915000Y-68935000D02*
X118560999Y-68289001D01*
X122099010Y-65859820D02*
X122099010Y-67236180D01*
X118006990Y-63841490D02*
X119688490Y-65522990D01*
X124291010Y-52651820D02*
X122260180Y-50620990D01*
X119688490Y-65522990D02*
X121762180Y-65522990D01*
X124291010Y-54028180D02*
X124291010Y-52651820D01*
X128769829Y-58506999D02*
X124291010Y-54028180D01*
X147136990Y-60479990D02*
X146749001Y-60092001D01*
X146684001Y-58506999D02*
X128769829Y-58506999D01*
X148319200Y-60479990D02*
X147136990Y-60479990D01*
X121762180Y-65522990D02*
X122099010Y-65859820D01*
X148929010Y-59870180D02*
X148319200Y-60479990D01*
X148929010Y-58470600D02*
X148929010Y-59870180D01*
X146965409Y-56506999D02*
X148929010Y-58470600D01*
X143598999Y-56441999D02*
X143663999Y-56506999D01*
X118343820Y-50620990D02*
X118006990Y-50957820D01*
X143598999Y-52222001D02*
X143598999Y-56441999D01*
X143663999Y-56506999D02*
X146965409Y-56506999D01*
X143663999Y-52157001D02*
X143598999Y-52222001D01*
X120400190Y-68935000D02*
X118010600Y-68935000D01*
X146749001Y-58571999D02*
X146684001Y-58506999D01*
X146684001Y-52157001D02*
X143663999Y-52157001D01*
X122099010Y-67236180D02*
X120400190Y-68935000D01*
X146749001Y-60092001D02*
X146749001Y-58571999D01*
X146749001Y-52092001D02*
X146684001Y-52157001D01*
X146749001Y-50571999D02*
X146749001Y-52092001D01*
X145509002Y-49332000D02*
X146749001Y-50571999D01*
X145174000Y-49332000D02*
X145509002Y-49332000D01*
X122260180Y-50620990D02*
X118343820Y-50620990D01*
X118006990Y-63409690D02*
X117335300Y-62738000D01*
X118006990Y-63841490D02*
X118006990Y-63409690D01*
X117335300Y-62738000D02*
X117335300Y-51511200D01*
X117888680Y-50957820D02*
X118006990Y-50957820D01*
X117335300Y-51511200D02*
X117888680Y-50957820D01*
%TO.N,/RXD*%
X145174000Y-51332000D02*
X134248000Y-51332000D01*
X134248000Y-51332000D02*
X133256000Y-52324000D01*
X133256000Y-56642000D02*
X132240000Y-57658000D01*
X133256000Y-52324000D02*
X133256000Y-56642000D01*
X116835599Y-88285789D02*
X116835599Y-72650001D01*
X125818900Y-97980500D02*
X126072900Y-98234500D01*
X121651400Y-97980500D02*
X125818900Y-97980500D01*
X119924200Y-99707700D02*
X118757700Y-99707700D01*
X121651400Y-97980500D02*
X119924200Y-99707700D01*
X116725700Y-88395688D02*
X116835599Y-88285789D01*
X116725700Y-96888300D02*
X116725700Y-88395688D01*
X121375002Y-57658000D02*
X120011000Y-57658000D01*
X121789001Y-58071999D02*
X121375002Y-57658000D01*
X121789001Y-63724811D02*
X121789001Y-58071999D01*
X123924010Y-65859820D02*
X121789001Y-63724811D01*
X122049010Y-74627180D02*
X122049010Y-70238608D01*
X121486189Y-75190001D02*
X122049010Y-74627180D01*
X123924010Y-68363608D02*
X123924010Y-65859820D01*
X117446599Y-75190001D02*
X121486189Y-75190001D01*
X116835599Y-74579001D02*
X117446599Y-75190001D01*
X116835599Y-72650001D02*
X116835599Y-74579001D01*
X122049010Y-70238608D02*
X123924010Y-68363608D01*
X118010600Y-71475000D02*
X116835599Y-72650001D01*
%TO.N,Net-(R1-Pad2)*%
X129966000Y-53340000D02*
X129974000Y-53332000D01*
X125278500Y-53340000D02*
X129966000Y-53340000D01*
%TO.N,Net-(R3-Pad1)*%
X125278500Y-49784000D02*
X127668000Y-49784000D01*
X128120000Y-49332000D02*
X129974000Y-49332000D01*
X127668000Y-49784000D02*
X128120000Y-49332000D01*
%TO.N,Net-(R4-Pad2)*%
X127078100Y-55332000D02*
X127076200Y-55333900D01*
X129974000Y-55332000D02*
X127078100Y-55332000D01*
X122897900Y-73687900D02*
X123124000Y-73914000D01*
X122897900Y-72224900D02*
X122897900Y-73687900D01*
%TO.N,Net-(R5-Pad2)*%
X145174000Y-57332000D02*
X147154000Y-57332000D01*
X148091500Y-58269500D02*
X148091500Y-59182000D01*
X147154000Y-57332000D02*
X148091500Y-58269500D01*
X120736000Y-58748000D02*
X121064000Y-58420000D01*
X145102000Y-57404000D02*
X145174000Y-57332000D01*
X134018000Y-57404000D02*
X145102000Y-57404000D01*
X120736000Y-64716300D02*
X120738900Y-64719200D01*
X120736000Y-58748000D02*
X120736000Y-64716300D01*
X120738900Y-64719200D02*
X121958100Y-64719200D01*
X123086500Y-65847600D02*
X123086500Y-66548000D01*
X121958100Y-64719200D02*
X123086500Y-65847600D01*
%TO.N,Net-(R6-Pad2)*%
X143811988Y-62304990D02*
X143162000Y-61655002D01*
X151976490Y-62304990D02*
X143811988Y-62304990D01*
X152409500Y-62738000D02*
X151976490Y-62304990D01*
X143674000Y-59332000D02*
X145174000Y-59332000D01*
X143162000Y-59844000D02*
X143674000Y-59332000D01*
X143162000Y-61655002D02*
X143162000Y-59844000D01*
%TO.N,Net-(R8-Pad2)*%
X148227500Y-61332000D02*
X148242000Y-61317500D01*
X145174000Y-61332000D02*
X148227500Y-61332000D01*
%TO.N,/ledb*%
X145174000Y-53332000D02*
X147234000Y-53332000D01*
X147234000Y-53332000D02*
X148242000Y-52324000D01*
X148242000Y-52324000D02*
X154846000Y-52324000D01*
X155100000Y-52578000D02*
X155100000Y-54102000D01*
X154846000Y-52324000D02*
X155100000Y-52578000D01*
%TO.N,/leda*%
X148790000Y-55332000D02*
X150020000Y-54102000D01*
X145174000Y-55332000D02*
X148790000Y-55332000D01*
%TO.N,/TTLRX*%
X120484900Y-100624000D02*
X122946800Y-100624000D01*
X124066300Y-99504500D02*
X126072900Y-99504500D01*
X122946800Y-100624000D02*
X124066300Y-99504500D01*
%TO.N,/adc*%
X126976000Y-51332000D02*
X126974600Y-51333400D01*
X129974000Y-51332000D02*
X126976000Y-51332000D01*
%TO.N,/gpio13*%
X132261500Y-61332000D02*
X132384800Y-61455300D01*
X129974000Y-61332000D02*
X132261500Y-61332000D01*
%TO.N,/gpio12*%
X127619900Y-59332000D02*
X127571500Y-59283600D01*
X129974000Y-59332000D02*
X127619900Y-59332000D01*
%TO.N,/gpio14*%
X128794900Y-57332000D02*
X127914400Y-56451500D01*
X129974000Y-57332000D02*
X128794900Y-57332000D01*
X126111000Y-57810400D02*
X126111000Y-59436000D01*
X125082300Y-56781700D02*
X126111000Y-57810400D01*
%TO.N,/gpio9*%
X136574000Y-64832000D02*
X136574000Y-62660000D01*
%TO.N,/SCLK*%
X142574000Y-108711800D02*
X145707100Y-116306600D01*
X142574000Y-64832000D02*
X142574000Y-108711800D01*
%TO.N,/MOSI*%
X140574000Y-110211800D02*
X143167100Y-116306600D01*
X140574000Y-64832000D02*
X140574000Y-110211800D01*
%TO.N,/MISO*%
X134574000Y-62920600D02*
X134493000Y-62839600D01*
X134574000Y-64832000D02*
X134574000Y-62920600D01*
%TO.N,/CS0*%
X132574000Y-63282800D02*
X132270500Y-62979300D01*
X132574000Y-64832000D02*
X132574000Y-63282800D01*
%TD*%
D23*
%TO.N,GND*%
X157315000Y-112586203D02*
X157267176Y-119315000D01*
X116685000Y-119315000D01*
X116685000Y-108346031D01*
X116790100Y-108451131D01*
X116790100Y-108477260D01*
X116804130Y-108547791D01*
X116791709Y-108673900D01*
X116797201Y-108729661D01*
X116797200Y-115514248D01*
X116791709Y-115570000D01*
X116797200Y-115625751D01*
X116813623Y-115792498D01*
X116878524Y-116006446D01*
X116983916Y-116203623D01*
X117125751Y-116376449D01*
X117169064Y-116411995D01*
X117826808Y-117069740D01*
X117862351Y-117113049D01*
X117905657Y-117148589D01*
X118035177Y-117254884D01*
X118232353Y-117360276D01*
X118446301Y-117425177D01*
X118668800Y-117447091D01*
X118724552Y-117441600D01*
X121429417Y-117441600D01*
X121466563Y-117511094D01*
X121545915Y-117607785D01*
X121642606Y-117687137D01*
X121752920Y-117746102D01*
X121872618Y-117782412D01*
X121997100Y-117794672D01*
X123697100Y-117794672D01*
X123821582Y-117782412D01*
X123941280Y-117746102D01*
X124051594Y-117687137D01*
X124148285Y-117607785D01*
X124227637Y-117511094D01*
X124286602Y-117400780D01*
X124308613Y-117328220D01*
X124440468Y-117460075D01*
X124683689Y-117622590D01*
X124953942Y-117734532D01*
X125240840Y-117791600D01*
X125533360Y-117791600D01*
X125820258Y-117734532D01*
X126090511Y-117622590D01*
X126333732Y-117460075D01*
X126540575Y-117253232D01*
X126657100Y-117078840D01*
X126773625Y-117253232D01*
X126980468Y-117460075D01*
X127223689Y-117622590D01*
X127493942Y-117734532D01*
X127780840Y-117791600D01*
X128073360Y-117791600D01*
X128360258Y-117734532D01*
X128630511Y-117622590D01*
X128873732Y-117460075D01*
X129080575Y-117253232D01*
X129197100Y-117078840D01*
X129313625Y-117253232D01*
X129520468Y-117460075D01*
X129763689Y-117622590D01*
X130033942Y-117734532D01*
X130320840Y-117791600D01*
X130613360Y-117791600D01*
X130900258Y-117734532D01*
X131170511Y-117622590D01*
X131413732Y-117460075D01*
X131620575Y-117253232D01*
X131737100Y-117078840D01*
X131853625Y-117253232D01*
X132060468Y-117460075D01*
X132303689Y-117622590D01*
X132573942Y-117734532D01*
X132860840Y-117791600D01*
X133153360Y-117791600D01*
X133440258Y-117734532D01*
X133710511Y-117622590D01*
X133953732Y-117460075D01*
X134160575Y-117253232D01*
X134277100Y-117078840D01*
X134393625Y-117253232D01*
X134600468Y-117460075D01*
X134843689Y-117622590D01*
X135113942Y-117734532D01*
X135400840Y-117791600D01*
X135693360Y-117791600D01*
X135980258Y-117734532D01*
X136250511Y-117622590D01*
X136493732Y-117460075D01*
X136700575Y-117253232D01*
X136817100Y-117078840D01*
X136933625Y-117253232D01*
X137140468Y-117460075D01*
X137383689Y-117622590D01*
X137653942Y-117734532D01*
X137940840Y-117791600D01*
X138233360Y-117791600D01*
X138520258Y-117734532D01*
X138790511Y-117622590D01*
X139033732Y-117460075D01*
X139240575Y-117253232D01*
X139357100Y-117078840D01*
X139473625Y-117253232D01*
X139680468Y-117460075D01*
X139923689Y-117622590D01*
X140193942Y-117734532D01*
X140480840Y-117791600D01*
X140773360Y-117791600D01*
X141060258Y-117734532D01*
X141330511Y-117622590D01*
X141573732Y-117460075D01*
X141780575Y-117253232D01*
X141897100Y-117078840D01*
X142013625Y-117253232D01*
X142220468Y-117460075D01*
X142463689Y-117622590D01*
X142733942Y-117734532D01*
X143020840Y-117791600D01*
X143313360Y-117791600D01*
X143600258Y-117734532D01*
X143870511Y-117622590D01*
X144113732Y-117460075D01*
X144320575Y-117253232D01*
X144437100Y-117078840D01*
X144553625Y-117253232D01*
X144760468Y-117460075D01*
X145003689Y-117622590D01*
X145273942Y-117734532D01*
X145560840Y-117791600D01*
X145853360Y-117791600D01*
X146140258Y-117734532D01*
X146410511Y-117622590D01*
X146653732Y-117460075D01*
X146860575Y-117253232D01*
X146977100Y-117078840D01*
X147093625Y-117253232D01*
X147300468Y-117460075D01*
X147543689Y-117622590D01*
X147813942Y-117734532D01*
X148100840Y-117791600D01*
X148393360Y-117791600D01*
X148680258Y-117734532D01*
X148950511Y-117622590D01*
X149193732Y-117460075D01*
X149400575Y-117253232D01*
X149522295Y-117071066D01*
X149591922Y-117187955D01*
X149786831Y-117404188D01*
X150020180Y-117578241D01*
X150283001Y-117703425D01*
X150430210Y-117748076D01*
X150660100Y-117626755D01*
X150660100Y-116433600D01*
X150914100Y-116433600D01*
X150914100Y-117626755D01*
X151143990Y-117748076D01*
X151291199Y-117703425D01*
X151554020Y-117578241D01*
X151787369Y-117404188D01*
X151982278Y-117187955D01*
X152131257Y-116937852D01*
X152228581Y-116663491D01*
X152107914Y-116433600D01*
X150914100Y-116433600D01*
X150660100Y-116433600D01*
X150640100Y-116433600D01*
X150640100Y-116179600D01*
X150660100Y-116179600D01*
X150660100Y-114986445D01*
X150914100Y-114986445D01*
X150914100Y-116179600D01*
X152107914Y-116179600D01*
X152228581Y-115949709D01*
X152131257Y-115675348D01*
X151982278Y-115425245D01*
X151787369Y-115209012D01*
X151554020Y-115034959D01*
X151291199Y-114909775D01*
X151143990Y-114865124D01*
X150914100Y-114986445D01*
X150660100Y-114986445D01*
X150430210Y-114865124D01*
X150283001Y-114909775D01*
X150020180Y-115034959D01*
X149786831Y-115209012D01*
X149591922Y-115425245D01*
X149522295Y-115542134D01*
X149400575Y-115359968D01*
X149193732Y-115153125D01*
X148950511Y-114990610D01*
X148680258Y-114878668D01*
X148393360Y-114821600D01*
X148100840Y-114821600D01*
X147813942Y-114878668D01*
X147543689Y-114990610D01*
X147300468Y-115153125D01*
X147093625Y-115359968D01*
X146977100Y-115534360D01*
X146860575Y-115359968D01*
X146653732Y-115153125D01*
X146410511Y-114990610D01*
X146140258Y-114878668D01*
X145922274Y-114835308D01*
X143334000Y-108561195D01*
X143334000Y-66313046D01*
X143428494Y-66262537D01*
X143525185Y-66183185D01*
X143604537Y-66086494D01*
X143663502Y-65976180D01*
X143699812Y-65856482D01*
X143712072Y-65732000D01*
X143712072Y-64431286D01*
X143799518Y-64457812D01*
X143924000Y-64470072D01*
X144888250Y-64467000D01*
X145047000Y-64308250D01*
X145047000Y-63459000D01*
X143498603Y-63459000D01*
X143428494Y-63401463D01*
X143318180Y-63342498D01*
X143198482Y-63306188D01*
X143074000Y-63293928D01*
X142074000Y-63293928D01*
X141949518Y-63306188D01*
X141829820Y-63342498D01*
X141719506Y-63401463D01*
X141622815Y-63480815D01*
X141574000Y-63540296D01*
X141525185Y-63480815D01*
X141428494Y-63401463D01*
X141318180Y-63342498D01*
X141198482Y-63306188D01*
X141074000Y-63293928D01*
X140074000Y-63293928D01*
X139949518Y-63306188D01*
X139829820Y-63342498D01*
X139719506Y-63401463D01*
X139622815Y-63480815D01*
X139574000Y-63540296D01*
X139525185Y-63480815D01*
X139428494Y-63401463D01*
X139318180Y-63342498D01*
X139198482Y-63306188D01*
X139074000Y-63293928D01*
X138074000Y-63293928D01*
X137949518Y-63306188D01*
X137829820Y-63342498D01*
X137719506Y-63401463D01*
X137622815Y-63480815D01*
X137574000Y-63540296D01*
X137525185Y-63480815D01*
X137428494Y-63401463D01*
X137342313Y-63355398D01*
X137377937Y-63319774D01*
X137491205Y-63150256D01*
X137569226Y-62961898D01*
X137609000Y-62761939D01*
X137609000Y-62558061D01*
X137569226Y-62358102D01*
X137491205Y-62169744D01*
X137377937Y-62000226D01*
X137233774Y-61856063D01*
X137064256Y-61742795D01*
X136875898Y-61664774D01*
X136675939Y-61625000D01*
X136472061Y-61625000D01*
X136272102Y-61664774D01*
X136083744Y-61742795D01*
X135914226Y-61856063D01*
X135770063Y-62000226D01*
X135656795Y-62169744D01*
X135578774Y-62358102D01*
X135539000Y-62558061D01*
X135539000Y-62761939D01*
X135578774Y-62961898D01*
X135656795Y-63150256D01*
X135770063Y-63319774D01*
X135805687Y-63355398D01*
X135719506Y-63401463D01*
X135622815Y-63480815D01*
X135574000Y-63540296D01*
X135525185Y-63480815D01*
X135428494Y-63401463D01*
X135379763Y-63375415D01*
X135410205Y-63329856D01*
X135488226Y-63141498D01*
X135528000Y-62941539D01*
X135528000Y-62737661D01*
X135488226Y-62537702D01*
X135410205Y-62349344D01*
X135296937Y-62179826D01*
X135152774Y-62035663D01*
X134983256Y-61922395D01*
X134794898Y-61844374D01*
X134594939Y-61804600D01*
X134391061Y-61804600D01*
X134191102Y-61844374D01*
X134002744Y-61922395D01*
X133833226Y-62035663D01*
X133689063Y-62179826D01*
X133575795Y-62349344D01*
X133497774Y-62537702D01*
X133458000Y-62737661D01*
X133458000Y-62941539D01*
X133497774Y-63141498D01*
X133575795Y-63329856D01*
X133657592Y-63452274D01*
X133622815Y-63480815D01*
X133574000Y-63540296D01*
X133525185Y-63480815D01*
X133428494Y-63401463D01*
X133334000Y-63350954D01*
X133334000Y-63320123D01*
X133337676Y-63282800D01*
X133334000Y-63245477D01*
X133334000Y-63245467D01*
X133323003Y-63133814D01*
X133305500Y-63076113D01*
X133305500Y-62877361D01*
X133265726Y-62677402D01*
X133187705Y-62489044D01*
X133074437Y-62319526D01*
X133026335Y-62271424D01*
X133044574Y-62259237D01*
X133188737Y-62115074D01*
X133302005Y-61945556D01*
X133380026Y-61757198D01*
X133419800Y-61557239D01*
X133419800Y-61353361D01*
X133380026Y-61153402D01*
X133302005Y-60965044D01*
X133188737Y-60795526D01*
X133044574Y-60651363D01*
X132875056Y-60538095D01*
X132686698Y-60460074D01*
X132486739Y-60420300D01*
X132282861Y-60420300D01*
X132082902Y-60460074D01*
X131894544Y-60538095D01*
X131843801Y-60572000D01*
X131805046Y-60572000D01*
X131754537Y-60477506D01*
X131675185Y-60380815D01*
X131615704Y-60332000D01*
X131675185Y-60283185D01*
X131754537Y-60186494D01*
X131813502Y-60076180D01*
X131849812Y-59956482D01*
X131862072Y-59832000D01*
X131862072Y-59266999D01*
X142664200Y-59266999D01*
X142650998Y-59280201D01*
X142622000Y-59303999D01*
X142598202Y-59332997D01*
X142598201Y-59332998D01*
X142527026Y-59419724D01*
X142456454Y-59551754D01*
X142432112Y-59632002D01*
X142412998Y-59695014D01*
X142403189Y-59794602D01*
X142398324Y-59844000D01*
X142402001Y-59881332D01*
X142402000Y-61617679D01*
X142398324Y-61655002D01*
X142402000Y-61692324D01*
X142402000Y-61692334D01*
X142412997Y-61803987D01*
X142455211Y-61943150D01*
X142456454Y-61947248D01*
X142527026Y-62079278D01*
X142560445Y-62119999D01*
X142621999Y-62195003D01*
X142651002Y-62218805D01*
X143248188Y-62815992D01*
X143271987Y-62844991D01*
X143286282Y-62856723D01*
X143289000Y-63046250D01*
X143447750Y-63205000D01*
X145047000Y-63205000D01*
X145047000Y-63185000D01*
X145301000Y-63185000D01*
X145301000Y-63205000D01*
X145321000Y-63205000D01*
X145321000Y-63459000D01*
X145301000Y-63459000D01*
X145301000Y-64308250D01*
X145459750Y-64467000D01*
X146424000Y-64470072D01*
X146548482Y-64457812D01*
X146668180Y-64421502D01*
X146778494Y-64362537D01*
X146875185Y-64283185D01*
X146954537Y-64186494D01*
X147013502Y-64076180D01*
X147027721Y-64029305D01*
X147090815Y-64106185D01*
X147187506Y-64185537D01*
X147297820Y-64244502D01*
X147417518Y-64280812D01*
X147542000Y-64293072D01*
X147956250Y-64290000D01*
X148115000Y-64131250D01*
X148115000Y-63269500D01*
X148369000Y-63269500D01*
X148369000Y-64131250D01*
X148527750Y-64290000D01*
X148942000Y-64293072D01*
X149066482Y-64280812D01*
X149186180Y-64244502D01*
X149296494Y-64185537D01*
X149393185Y-64106185D01*
X149472537Y-64009494D01*
X149531502Y-63899180D01*
X149567812Y-63779482D01*
X149580072Y-63655000D01*
X149577000Y-63428250D01*
X149418250Y-63269500D01*
X148369000Y-63269500D01*
X148115000Y-63269500D01*
X148095000Y-63269500D01*
X148095000Y-63064990D01*
X151258928Y-63064990D01*
X151258928Y-63188002D01*
X151275992Y-63361256D01*
X151326528Y-63527852D01*
X151408595Y-63681387D01*
X151519038Y-63815962D01*
X151653613Y-63926405D01*
X151807148Y-64008472D01*
X151973744Y-64059008D01*
X152146998Y-64076072D01*
X152672002Y-64076072D01*
X152845256Y-64059008D01*
X153011852Y-64008472D01*
X153099501Y-63961622D01*
X153099500Y-64891068D01*
X152499169Y-65491400D01*
X146903652Y-65491400D01*
X146847900Y-65485909D01*
X146625401Y-65507823D01*
X146411453Y-65572724D01*
X146214277Y-65678116D01*
X146084756Y-65784411D01*
X146084755Y-65784412D01*
X146041451Y-65819951D01*
X146005913Y-65863254D01*
X143633212Y-68235957D01*
X143526917Y-68365478D01*
X143421524Y-68562654D01*
X143356623Y-68776602D01*
X143334709Y-68999100D01*
X143356623Y-69221598D01*
X143421524Y-69435546D01*
X143526917Y-69632722D01*
X143668752Y-69805548D01*
X143841578Y-69947383D01*
X144038754Y-70052776D01*
X144252702Y-70117677D01*
X144475200Y-70139591D01*
X144697698Y-70117677D01*
X144911646Y-70052776D01*
X145108822Y-69947383D01*
X145238343Y-69841088D01*
X147318033Y-67761400D01*
X152913549Y-67761400D01*
X152969300Y-67766891D01*
X153025051Y-67761400D01*
X153025052Y-67761400D01*
X153191799Y-67744977D01*
X153405747Y-67680076D01*
X153602923Y-67574684D01*
X153775749Y-67432849D01*
X153811296Y-67389535D01*
X154997640Y-66203192D01*
X155040949Y-66167649D01*
X155182784Y-65994823D01*
X155288176Y-65797647D01*
X155353077Y-65583699D01*
X155369500Y-65416952D01*
X155369500Y-65416951D01*
X155374991Y-65361200D01*
X155369500Y-65305449D01*
X155369500Y-63346107D01*
X155385072Y-63188002D01*
X155385072Y-62287998D01*
X155368008Y-62114744D01*
X155317472Y-61948148D01*
X155235405Y-61794613D01*
X155124962Y-61660038D01*
X154994500Y-61552970D01*
X154994500Y-61147825D01*
X154998176Y-61110500D01*
X154994500Y-61073175D01*
X154994500Y-61073167D01*
X154983503Y-60961514D01*
X154940046Y-60818253D01*
X154869474Y-60686224D01*
X154774501Y-60570499D01*
X154745504Y-60546702D01*
X154036303Y-59837502D01*
X154012501Y-59808499D01*
X153896776Y-59713526D01*
X153779539Y-59650861D01*
X153748405Y-59592613D01*
X153637962Y-59458038D01*
X153611109Y-59436000D01*
X153637962Y-59413962D01*
X153748405Y-59279387D01*
X153830472Y-59125852D01*
X153881008Y-58959256D01*
X153898072Y-58786002D01*
X153898072Y-58260998D01*
X153881008Y-58087744D01*
X153830472Y-57921148D01*
X153748405Y-57767613D01*
X153637962Y-57633038D01*
X153503387Y-57522595D01*
X153349852Y-57440528D01*
X153320000Y-57431473D01*
X153320000Y-55440313D01*
X153538505Y-55294312D01*
X153752312Y-55080505D01*
X153830000Y-54964237D01*
X153907688Y-55080505D01*
X154121495Y-55294312D01*
X154372905Y-55462299D01*
X154652257Y-55578011D01*
X154948816Y-55637000D01*
X155251184Y-55637000D01*
X155547743Y-55578011D01*
X155827095Y-55462299D01*
X156078505Y-55294312D01*
X156292312Y-55080505D01*
X156460299Y-54829095D01*
X156576011Y-54549743D01*
X156635000Y-54253184D01*
X156635000Y-53950816D01*
X156576011Y-53654257D01*
X156460299Y-53374905D01*
X156292312Y-53123495D01*
X156078505Y-52909688D01*
X155860000Y-52763687D01*
X155860000Y-52615322D01*
X155863676Y-52577999D01*
X155860000Y-52540676D01*
X155860000Y-52540667D01*
X155849003Y-52429014D01*
X155805546Y-52285753D01*
X155734974Y-52153724D01*
X155640001Y-52037999D01*
X155610998Y-52014197D01*
X155409804Y-51813003D01*
X155386001Y-51783999D01*
X155270276Y-51689026D01*
X155138247Y-51618454D01*
X154994986Y-51574997D01*
X154883333Y-51564000D01*
X154883322Y-51564000D01*
X154846000Y-51560324D01*
X154808678Y-51564000D01*
X148279322Y-51564000D01*
X148241999Y-51560324D01*
X148204676Y-51564000D01*
X148204667Y-51564000D01*
X148093014Y-51574997D01*
X147949753Y-51618454D01*
X147817724Y-51689026D01*
X147701999Y-51783999D01*
X147678201Y-51812997D01*
X147509001Y-51982197D01*
X147509001Y-50609321D01*
X147512677Y-50571998D01*
X147509001Y-50534675D01*
X147509001Y-50534666D01*
X147498004Y-50423013D01*
X147454547Y-50279752D01*
X147383975Y-50147723D01*
X147350556Y-50107002D01*
X147312800Y-50060995D01*
X147312796Y-50060991D01*
X147289002Y-50031998D01*
X147260010Y-50008205D01*
X147062072Y-49810267D01*
X147062072Y-48832000D01*
X147049812Y-48707518D01*
X147042981Y-48685000D01*
X157315001Y-48685000D01*
X157315000Y-112586203D01*
%TA.AperFunction,Conductor*%
D24*
G36*
X157315000Y-112586203D02*
G01*
X157267176Y-119315000D01*
X116685000Y-119315000D01*
X116685000Y-108346031D01*
X116790100Y-108451131D01*
X116790100Y-108477260D01*
X116804130Y-108547791D01*
X116791709Y-108673900D01*
X116797201Y-108729661D01*
X116797200Y-115514248D01*
X116791709Y-115570000D01*
X116797200Y-115625751D01*
X116813623Y-115792498D01*
X116878524Y-116006446D01*
X116983916Y-116203623D01*
X117125751Y-116376449D01*
X117169064Y-116411995D01*
X117826808Y-117069740D01*
X117862351Y-117113049D01*
X117905657Y-117148589D01*
X118035177Y-117254884D01*
X118232353Y-117360276D01*
X118446301Y-117425177D01*
X118668800Y-117447091D01*
X118724552Y-117441600D01*
X121429417Y-117441600D01*
X121466563Y-117511094D01*
X121545915Y-117607785D01*
X121642606Y-117687137D01*
X121752920Y-117746102D01*
X121872618Y-117782412D01*
X121997100Y-117794672D01*
X123697100Y-117794672D01*
X123821582Y-117782412D01*
X123941280Y-117746102D01*
X124051594Y-117687137D01*
X124148285Y-117607785D01*
X124227637Y-117511094D01*
X124286602Y-117400780D01*
X124308613Y-117328220D01*
X124440468Y-117460075D01*
X124683689Y-117622590D01*
X124953942Y-117734532D01*
X125240840Y-117791600D01*
X125533360Y-117791600D01*
X125820258Y-117734532D01*
X126090511Y-117622590D01*
X126333732Y-117460075D01*
X126540575Y-117253232D01*
X126657100Y-117078840D01*
X126773625Y-117253232D01*
X126980468Y-117460075D01*
X127223689Y-117622590D01*
X127493942Y-117734532D01*
X127780840Y-117791600D01*
X128073360Y-117791600D01*
X128360258Y-117734532D01*
X128630511Y-117622590D01*
X128873732Y-117460075D01*
X129080575Y-117253232D01*
X129197100Y-117078840D01*
X129313625Y-117253232D01*
X129520468Y-117460075D01*
X129763689Y-117622590D01*
X130033942Y-117734532D01*
X130320840Y-117791600D01*
X130613360Y-117791600D01*
X130900258Y-117734532D01*
X131170511Y-117622590D01*
X131413732Y-117460075D01*
X131620575Y-117253232D01*
X131737100Y-117078840D01*
X131853625Y-117253232D01*
X132060468Y-117460075D01*
X132303689Y-117622590D01*
X132573942Y-117734532D01*
X132860840Y-117791600D01*
X133153360Y-117791600D01*
X133440258Y-117734532D01*
X133710511Y-117622590D01*
X133953732Y-117460075D01*
X134160575Y-117253232D01*
X134277100Y-117078840D01*
X134393625Y-117253232D01*
X134600468Y-117460075D01*
X134843689Y-117622590D01*
X135113942Y-117734532D01*
X135400840Y-117791600D01*
X135693360Y-117791600D01*
X135980258Y-117734532D01*
X136250511Y-117622590D01*
X136493732Y-117460075D01*
X136700575Y-117253232D01*
X136817100Y-117078840D01*
X136933625Y-117253232D01*
X137140468Y-117460075D01*
X137383689Y-117622590D01*
X137653942Y-117734532D01*
X137940840Y-117791600D01*
X138233360Y-117791600D01*
X138520258Y-117734532D01*
X138790511Y-117622590D01*
X139033732Y-117460075D01*
X139240575Y-117253232D01*
X139357100Y-117078840D01*
X139473625Y-117253232D01*
X139680468Y-117460075D01*
X139923689Y-117622590D01*
X140193942Y-117734532D01*
X140480840Y-117791600D01*
X140773360Y-117791600D01*
X141060258Y-117734532D01*
X141330511Y-117622590D01*
X141573732Y-117460075D01*
X141780575Y-117253232D01*
X141897100Y-117078840D01*
X142013625Y-117253232D01*
X142220468Y-117460075D01*
X142463689Y-117622590D01*
X142733942Y-117734532D01*
X143020840Y-117791600D01*
X143313360Y-117791600D01*
X143600258Y-117734532D01*
X143870511Y-117622590D01*
X144113732Y-117460075D01*
X144320575Y-117253232D01*
X144437100Y-117078840D01*
X144553625Y-117253232D01*
X144760468Y-117460075D01*
X145003689Y-117622590D01*
X145273942Y-117734532D01*
X145560840Y-117791600D01*
X145853360Y-117791600D01*
X146140258Y-117734532D01*
X146410511Y-117622590D01*
X146653732Y-117460075D01*
X146860575Y-117253232D01*
X146977100Y-117078840D01*
X147093625Y-117253232D01*
X147300468Y-117460075D01*
X147543689Y-117622590D01*
X147813942Y-117734532D01*
X148100840Y-117791600D01*
X148393360Y-117791600D01*
X148680258Y-117734532D01*
X148950511Y-117622590D01*
X149193732Y-117460075D01*
X149400575Y-117253232D01*
X149522295Y-117071066D01*
X149591922Y-117187955D01*
X149786831Y-117404188D01*
X150020180Y-117578241D01*
X150283001Y-117703425D01*
X150430210Y-117748076D01*
X150660100Y-117626755D01*
X150660100Y-116433600D01*
X150914100Y-116433600D01*
X150914100Y-117626755D01*
X151143990Y-117748076D01*
X151291199Y-117703425D01*
X151554020Y-117578241D01*
X151787369Y-117404188D01*
X151982278Y-117187955D01*
X152131257Y-116937852D01*
X152228581Y-116663491D01*
X152107914Y-116433600D01*
X150914100Y-116433600D01*
X150660100Y-116433600D01*
X150640100Y-116433600D01*
X150640100Y-116179600D01*
X150660100Y-116179600D01*
X150660100Y-114986445D01*
X150914100Y-114986445D01*
X150914100Y-116179600D01*
X152107914Y-116179600D01*
X152228581Y-115949709D01*
X152131257Y-115675348D01*
X151982278Y-115425245D01*
X151787369Y-115209012D01*
X151554020Y-115034959D01*
X151291199Y-114909775D01*
X151143990Y-114865124D01*
X150914100Y-114986445D01*
X150660100Y-114986445D01*
X150430210Y-114865124D01*
X150283001Y-114909775D01*
X150020180Y-115034959D01*
X149786831Y-115209012D01*
X149591922Y-115425245D01*
X149522295Y-115542134D01*
X149400575Y-115359968D01*
X149193732Y-115153125D01*
X148950511Y-114990610D01*
X148680258Y-114878668D01*
X148393360Y-114821600D01*
X148100840Y-114821600D01*
X147813942Y-114878668D01*
X147543689Y-114990610D01*
X147300468Y-115153125D01*
X147093625Y-115359968D01*
X146977100Y-115534360D01*
X146860575Y-115359968D01*
X146653732Y-115153125D01*
X146410511Y-114990610D01*
X146140258Y-114878668D01*
X145922274Y-114835308D01*
X143334000Y-108561195D01*
X143334000Y-66313046D01*
X143428494Y-66262537D01*
X143525185Y-66183185D01*
X143604537Y-66086494D01*
X143663502Y-65976180D01*
X143699812Y-65856482D01*
X143712072Y-65732000D01*
X143712072Y-64431286D01*
X143799518Y-64457812D01*
X143924000Y-64470072D01*
X144888250Y-64467000D01*
X145047000Y-64308250D01*
X145047000Y-63459000D01*
X143498603Y-63459000D01*
X143428494Y-63401463D01*
X143318180Y-63342498D01*
X143198482Y-63306188D01*
X143074000Y-63293928D01*
X142074000Y-63293928D01*
X141949518Y-63306188D01*
X141829820Y-63342498D01*
X141719506Y-63401463D01*
X141622815Y-63480815D01*
X141574000Y-63540296D01*
X141525185Y-63480815D01*
X141428494Y-63401463D01*
X141318180Y-63342498D01*
X141198482Y-63306188D01*
X141074000Y-63293928D01*
X140074000Y-63293928D01*
X139949518Y-63306188D01*
X139829820Y-63342498D01*
X139719506Y-63401463D01*
X139622815Y-63480815D01*
X139574000Y-63540296D01*
X139525185Y-63480815D01*
X139428494Y-63401463D01*
X139318180Y-63342498D01*
X139198482Y-63306188D01*
X139074000Y-63293928D01*
X138074000Y-63293928D01*
X137949518Y-63306188D01*
X137829820Y-63342498D01*
X137719506Y-63401463D01*
X137622815Y-63480815D01*
X137574000Y-63540296D01*
X137525185Y-63480815D01*
X137428494Y-63401463D01*
X137342313Y-63355398D01*
X137377937Y-63319774D01*
X137491205Y-63150256D01*
X137569226Y-62961898D01*
X137609000Y-62761939D01*
X137609000Y-62558061D01*
X137569226Y-62358102D01*
X137491205Y-62169744D01*
X137377937Y-62000226D01*
X137233774Y-61856063D01*
X137064256Y-61742795D01*
X136875898Y-61664774D01*
X136675939Y-61625000D01*
X136472061Y-61625000D01*
X136272102Y-61664774D01*
X136083744Y-61742795D01*
X135914226Y-61856063D01*
X135770063Y-62000226D01*
X135656795Y-62169744D01*
X135578774Y-62358102D01*
X135539000Y-62558061D01*
X135539000Y-62761939D01*
X135578774Y-62961898D01*
X135656795Y-63150256D01*
X135770063Y-63319774D01*
X135805687Y-63355398D01*
X135719506Y-63401463D01*
X135622815Y-63480815D01*
X135574000Y-63540296D01*
X135525185Y-63480815D01*
X135428494Y-63401463D01*
X135379763Y-63375415D01*
X135410205Y-63329856D01*
X135488226Y-63141498D01*
X135528000Y-62941539D01*
X135528000Y-62737661D01*
X135488226Y-62537702D01*
X135410205Y-62349344D01*
X135296937Y-62179826D01*
X135152774Y-62035663D01*
X134983256Y-61922395D01*
X134794898Y-61844374D01*
X134594939Y-61804600D01*
X134391061Y-61804600D01*
X134191102Y-61844374D01*
X134002744Y-61922395D01*
X133833226Y-62035663D01*
X133689063Y-62179826D01*
X133575795Y-62349344D01*
X133497774Y-62537702D01*
X133458000Y-62737661D01*
X133458000Y-62941539D01*
X133497774Y-63141498D01*
X133575795Y-63329856D01*
X133657592Y-63452274D01*
X133622815Y-63480815D01*
X133574000Y-63540296D01*
X133525185Y-63480815D01*
X133428494Y-63401463D01*
X133334000Y-63350954D01*
X133334000Y-63320123D01*
X133337676Y-63282800D01*
X133334000Y-63245477D01*
X133334000Y-63245467D01*
X133323003Y-63133814D01*
X133305500Y-63076113D01*
X133305500Y-62877361D01*
X133265726Y-62677402D01*
X133187705Y-62489044D01*
X133074437Y-62319526D01*
X133026335Y-62271424D01*
X133044574Y-62259237D01*
X133188737Y-62115074D01*
X133302005Y-61945556D01*
X133380026Y-61757198D01*
X133419800Y-61557239D01*
X133419800Y-61353361D01*
X133380026Y-61153402D01*
X133302005Y-60965044D01*
X133188737Y-60795526D01*
X133044574Y-60651363D01*
X132875056Y-60538095D01*
X132686698Y-60460074D01*
X132486739Y-60420300D01*
X132282861Y-60420300D01*
X132082902Y-60460074D01*
X131894544Y-60538095D01*
X131843801Y-60572000D01*
X131805046Y-60572000D01*
X131754537Y-60477506D01*
X131675185Y-60380815D01*
X131615704Y-60332000D01*
X131675185Y-60283185D01*
X131754537Y-60186494D01*
X131813502Y-60076180D01*
X131849812Y-59956482D01*
X131862072Y-59832000D01*
X131862072Y-59266999D01*
X142664200Y-59266999D01*
X142650998Y-59280201D01*
X142622000Y-59303999D01*
X142598202Y-59332997D01*
X142598201Y-59332998D01*
X142527026Y-59419724D01*
X142456454Y-59551754D01*
X142432112Y-59632002D01*
X142412998Y-59695014D01*
X142403189Y-59794602D01*
X142398324Y-59844000D01*
X142402001Y-59881332D01*
X142402000Y-61617679D01*
X142398324Y-61655002D01*
X142402000Y-61692324D01*
X142402000Y-61692334D01*
X142412997Y-61803987D01*
X142455211Y-61943150D01*
X142456454Y-61947248D01*
X142527026Y-62079278D01*
X142560445Y-62119999D01*
X142621999Y-62195003D01*
X142651002Y-62218805D01*
X143248188Y-62815992D01*
X143271987Y-62844991D01*
X143286282Y-62856723D01*
X143289000Y-63046250D01*
X143447750Y-63205000D01*
X145047000Y-63205000D01*
X145047000Y-63185000D01*
X145301000Y-63185000D01*
X145301000Y-63205000D01*
X145321000Y-63205000D01*
X145321000Y-63459000D01*
X145301000Y-63459000D01*
X145301000Y-64308250D01*
X145459750Y-64467000D01*
X146424000Y-64470072D01*
X146548482Y-64457812D01*
X146668180Y-64421502D01*
X146778494Y-64362537D01*
X146875185Y-64283185D01*
X146954537Y-64186494D01*
X147013502Y-64076180D01*
X147027721Y-64029305D01*
X147090815Y-64106185D01*
X147187506Y-64185537D01*
X147297820Y-64244502D01*
X147417518Y-64280812D01*
X147542000Y-64293072D01*
X147956250Y-64290000D01*
X148115000Y-64131250D01*
X148115000Y-63269500D01*
X148369000Y-63269500D01*
X148369000Y-64131250D01*
X148527750Y-64290000D01*
X148942000Y-64293072D01*
X149066482Y-64280812D01*
X149186180Y-64244502D01*
X149296494Y-64185537D01*
X149393185Y-64106185D01*
X149472537Y-64009494D01*
X149531502Y-63899180D01*
X149567812Y-63779482D01*
X149580072Y-63655000D01*
X149577000Y-63428250D01*
X149418250Y-63269500D01*
X148369000Y-63269500D01*
X148115000Y-63269500D01*
X148095000Y-63269500D01*
X148095000Y-63064990D01*
X151258928Y-63064990D01*
X151258928Y-63188002D01*
X151275992Y-63361256D01*
X151326528Y-63527852D01*
X151408595Y-63681387D01*
X151519038Y-63815962D01*
X151653613Y-63926405D01*
X151807148Y-64008472D01*
X151973744Y-64059008D01*
X152146998Y-64076072D01*
X152672002Y-64076072D01*
X152845256Y-64059008D01*
X153011852Y-64008472D01*
X153099501Y-63961622D01*
X153099500Y-64891068D01*
X152499169Y-65491400D01*
X146903652Y-65491400D01*
X146847900Y-65485909D01*
X146625401Y-65507823D01*
X146411453Y-65572724D01*
X146214277Y-65678116D01*
X146084756Y-65784411D01*
X146084755Y-65784412D01*
X146041451Y-65819951D01*
X146005913Y-65863254D01*
X143633212Y-68235957D01*
X143526917Y-68365478D01*
X143421524Y-68562654D01*
X143356623Y-68776602D01*
X143334709Y-68999100D01*
X143356623Y-69221598D01*
X143421524Y-69435546D01*
X143526917Y-69632722D01*
X143668752Y-69805548D01*
X143841578Y-69947383D01*
X144038754Y-70052776D01*
X144252702Y-70117677D01*
X144475200Y-70139591D01*
X144697698Y-70117677D01*
X144911646Y-70052776D01*
X145108822Y-69947383D01*
X145238343Y-69841088D01*
X147318033Y-67761400D01*
X152913549Y-67761400D01*
X152969300Y-67766891D01*
X153025051Y-67761400D01*
X153025052Y-67761400D01*
X153191799Y-67744977D01*
X153405747Y-67680076D01*
X153602923Y-67574684D01*
X153775749Y-67432849D01*
X153811296Y-67389535D01*
X154997640Y-66203192D01*
X155040949Y-66167649D01*
X155182784Y-65994823D01*
X155288176Y-65797647D01*
X155353077Y-65583699D01*
X155369500Y-65416952D01*
X155369500Y-65416951D01*
X155374991Y-65361200D01*
X155369500Y-65305449D01*
X155369500Y-63346107D01*
X155385072Y-63188002D01*
X155385072Y-62287998D01*
X155368008Y-62114744D01*
X155317472Y-61948148D01*
X155235405Y-61794613D01*
X155124962Y-61660038D01*
X154994500Y-61552970D01*
X154994500Y-61147825D01*
X154998176Y-61110500D01*
X154994500Y-61073175D01*
X154994500Y-61073167D01*
X154983503Y-60961514D01*
X154940046Y-60818253D01*
X154869474Y-60686224D01*
X154774501Y-60570499D01*
X154745504Y-60546702D01*
X154036303Y-59837502D01*
X154012501Y-59808499D01*
X153896776Y-59713526D01*
X153779539Y-59650861D01*
X153748405Y-59592613D01*
X153637962Y-59458038D01*
X153611109Y-59436000D01*
X153637962Y-59413962D01*
X153748405Y-59279387D01*
X153830472Y-59125852D01*
X153881008Y-58959256D01*
X153898072Y-58786002D01*
X153898072Y-58260998D01*
X153881008Y-58087744D01*
X153830472Y-57921148D01*
X153748405Y-57767613D01*
X153637962Y-57633038D01*
X153503387Y-57522595D01*
X153349852Y-57440528D01*
X153320000Y-57431473D01*
X153320000Y-55440313D01*
X153538505Y-55294312D01*
X153752312Y-55080505D01*
X153830000Y-54964237D01*
X153907688Y-55080505D01*
X154121495Y-55294312D01*
X154372905Y-55462299D01*
X154652257Y-55578011D01*
X154948816Y-55637000D01*
X155251184Y-55637000D01*
X155547743Y-55578011D01*
X155827095Y-55462299D01*
X156078505Y-55294312D01*
X156292312Y-55080505D01*
X156460299Y-54829095D01*
X156576011Y-54549743D01*
X156635000Y-54253184D01*
X156635000Y-53950816D01*
X156576011Y-53654257D01*
X156460299Y-53374905D01*
X156292312Y-53123495D01*
X156078505Y-52909688D01*
X155860000Y-52763687D01*
X155860000Y-52615322D01*
X155863676Y-52577999D01*
X155860000Y-52540676D01*
X155860000Y-52540667D01*
X155849003Y-52429014D01*
X155805546Y-52285753D01*
X155734974Y-52153724D01*
X155640001Y-52037999D01*
X155610998Y-52014197D01*
X155409804Y-51813003D01*
X155386001Y-51783999D01*
X155270276Y-51689026D01*
X155138247Y-51618454D01*
X154994986Y-51574997D01*
X154883333Y-51564000D01*
X154883322Y-51564000D01*
X154846000Y-51560324D01*
X154808678Y-51564000D01*
X148279322Y-51564000D01*
X148241999Y-51560324D01*
X148204676Y-51564000D01*
X148204667Y-51564000D01*
X148093014Y-51574997D01*
X147949753Y-51618454D01*
X147817724Y-51689026D01*
X147701999Y-51783999D01*
X147678201Y-51812997D01*
X147509001Y-51982197D01*
X147509001Y-50609321D01*
X147512677Y-50571998D01*
X147509001Y-50534675D01*
X147509001Y-50534666D01*
X147498004Y-50423013D01*
X147454547Y-50279752D01*
X147383975Y-50147723D01*
X147350556Y-50107002D01*
X147312800Y-50060995D01*
X147312796Y-50060991D01*
X147289002Y-50031998D01*
X147260010Y-50008205D01*
X147062072Y-49810267D01*
X147062072Y-48832000D01*
X147049812Y-48707518D01*
X147042981Y-48685000D01*
X157315001Y-48685000D01*
X157315000Y-112586203D01*
G37*
%TD.AperFunction*%
D23*
X128920324Y-67062847D02*
X129025716Y-67260023D01*
X129167551Y-67432849D01*
X129340377Y-67574684D01*
X129537553Y-67680076D01*
X129751501Y-67744977D01*
X129918248Y-67761400D01*
X129918249Y-67761400D01*
X129974000Y-67766891D01*
X130029752Y-67761400D01*
X133732969Y-67761400D01*
X135683009Y-69711441D01*
X135718551Y-69754749D01*
X135891377Y-69896584D01*
X136088553Y-70001976D01*
X136302501Y-70066877D01*
X136469248Y-70083300D01*
X136469257Y-70083300D01*
X136524999Y-70088790D01*
X136580741Y-70083300D01*
X138981052Y-70083300D01*
X139147799Y-70066877D01*
X139361747Y-70001976D01*
X139558923Y-69896584D01*
X139731749Y-69754749D01*
X139814000Y-69654526D01*
X139814001Y-110178099D01*
X139810358Y-110219101D01*
X139818025Y-110289986D01*
X139824998Y-110360786D01*
X139826061Y-110364292D01*
X139826456Y-110367940D01*
X139847786Y-110435909D01*
X139868455Y-110504047D01*
X139887856Y-110540343D01*
X141967676Y-115428736D01*
X141897100Y-115534360D01*
X141780575Y-115359968D01*
X141573732Y-115153125D01*
X141330511Y-114990610D01*
X141060258Y-114878668D01*
X140773360Y-114821600D01*
X140480840Y-114821600D01*
X140193942Y-114878668D01*
X139923689Y-114990610D01*
X139680468Y-115153125D01*
X139473625Y-115359968D01*
X139357100Y-115534360D01*
X139240575Y-115359968D01*
X139033732Y-115153125D01*
X138790511Y-114990610D01*
X138520258Y-114878668D01*
X138233360Y-114821600D01*
X137940840Y-114821600D01*
X137653942Y-114878668D01*
X137383689Y-114990610D01*
X137140468Y-115153125D01*
X136933625Y-115359968D01*
X136817100Y-115534360D01*
X136700575Y-115359968D01*
X136493732Y-115153125D01*
X136250511Y-114990610D01*
X135980258Y-114878668D01*
X135693360Y-114821600D01*
X135400840Y-114821600D01*
X135113942Y-114878668D01*
X134843689Y-114990610D01*
X134600468Y-115153125D01*
X134393625Y-115359968D01*
X134277100Y-115534360D01*
X134160575Y-115359968D01*
X133953732Y-115153125D01*
X133710511Y-114990610D01*
X133440258Y-114878668D01*
X133153360Y-114821600D01*
X132860840Y-114821600D01*
X132573942Y-114878668D01*
X132303689Y-114990610D01*
X132060468Y-115153125D01*
X131853625Y-115359968D01*
X131737100Y-115534360D01*
X131620575Y-115359968D01*
X131413732Y-115153125D01*
X131170511Y-114990610D01*
X130900258Y-114878668D01*
X130613360Y-114821600D01*
X130320840Y-114821600D01*
X130033942Y-114878668D01*
X129763689Y-114990610D01*
X129520468Y-115153125D01*
X129313625Y-115359968D01*
X129197100Y-115534360D01*
X129080575Y-115359968D01*
X128873732Y-115153125D01*
X128630511Y-114990610D01*
X128360258Y-114878668D01*
X128073360Y-114821600D01*
X127780840Y-114821600D01*
X127493942Y-114878668D01*
X127223689Y-114990610D01*
X126980468Y-115153125D01*
X126773625Y-115359968D01*
X126657100Y-115534360D01*
X126540575Y-115359968D01*
X126522100Y-115341493D01*
X126522100Y-109427900D01*
X127998349Y-109427900D01*
X128054100Y-109433391D01*
X128109851Y-109427900D01*
X128109852Y-109427900D01*
X128276599Y-109411477D01*
X128490547Y-109346576D01*
X128687723Y-109241184D01*
X128860549Y-109099349D01*
X128896096Y-109056035D01*
X131662041Y-106290091D01*
X131705349Y-106254549D01*
X131847184Y-106081723D01*
X131952576Y-105884547D01*
X132017477Y-105670599D01*
X132033900Y-105503852D01*
X132039391Y-105448100D01*
X132033900Y-105392348D01*
X132033900Y-102586527D01*
X132167183Y-102424122D01*
X132272575Y-102226946D01*
X132337476Y-102012998D01*
X132359390Y-101790499D01*
X132337476Y-101568000D01*
X132272575Y-101354053D01*
X132261972Y-101334216D01*
X132261972Y-101220500D01*
X132244908Y-101047246D01*
X132194372Y-100880650D01*
X132112305Y-100727114D01*
X132001862Y-100592538D01*
X131995306Y-100587158D01*
X132075085Y-100521685D01*
X132112883Y-100475628D01*
X132112828Y-100483500D01*
X132125088Y-100607982D01*
X132161398Y-100727680D01*
X132220363Y-100837994D01*
X132299715Y-100934685D01*
X132396406Y-101014037D01*
X132506720Y-101073002D01*
X132626418Y-101109312D01*
X132750900Y-101121572D01*
X132965150Y-101118500D01*
X133123900Y-100959750D01*
X133123900Y-99885500D01*
X133103900Y-99885500D01*
X133103900Y-99631500D01*
X133123900Y-99631500D01*
X133123900Y-98557250D01*
X132965150Y-98398500D01*
X132750900Y-98395428D01*
X132626418Y-98407688D01*
X132506720Y-98443998D01*
X132396406Y-98502963D01*
X132299715Y-98582315D01*
X132220363Y-98679006D01*
X132177511Y-98759174D01*
X132154437Y-98716006D01*
X132075085Y-98619315D01*
X131978394Y-98539963D01*
X131868080Y-98480998D01*
X131748382Y-98444688D01*
X131623900Y-98432428D01*
X131184650Y-98435500D01*
X131025900Y-98594250D01*
X131025900Y-99443500D01*
X131045900Y-99443500D01*
X131045900Y-99697500D01*
X131025900Y-99697500D01*
X131025900Y-99717500D01*
X130771900Y-99717500D01*
X130771900Y-99697500D01*
X129697650Y-99697500D01*
X129538900Y-99856250D01*
X129535828Y-100070500D01*
X129548088Y-100194982D01*
X129584398Y-100314680D01*
X129643363Y-100424994D01*
X129722715Y-100521685D01*
X129802494Y-100587158D01*
X129795938Y-100592538D01*
X129685495Y-100727114D01*
X129603428Y-100880650D01*
X129552892Y-101047246D01*
X129535828Y-101220500D01*
X129535828Y-101720500D01*
X129552892Y-101893754D01*
X129603428Y-102060350D01*
X129685495Y-102213886D01*
X129763900Y-102309424D01*
X129763901Y-104977967D01*
X127583969Y-107157900D01*
X127199037Y-107157900D01*
X127208472Y-107062100D01*
X127205400Y-106622850D01*
X127046650Y-106464100D01*
X126197400Y-106464100D01*
X126197400Y-106484100D01*
X125943400Y-106484100D01*
X125943400Y-106464100D01*
X125923400Y-106464100D01*
X125923400Y-106210100D01*
X125943400Y-106210100D01*
X125943400Y-105135850D01*
X126197400Y-105135850D01*
X126197400Y-106210100D01*
X127046650Y-106210100D01*
X127205400Y-106051350D01*
X127208472Y-105612100D01*
X127196212Y-105487618D01*
X127159902Y-105367920D01*
X127100937Y-105257606D01*
X127021585Y-105160915D01*
X126924894Y-105081563D01*
X126814580Y-105022598D01*
X126694882Y-104986288D01*
X126570400Y-104974028D01*
X126356150Y-104977100D01*
X126197400Y-105135850D01*
X125943400Y-105135850D01*
X125784650Y-104977100D01*
X125570400Y-104974028D01*
X125445918Y-104986288D01*
X125326220Y-105022598D01*
X125305400Y-105033727D01*
X125305400Y-103766441D01*
X125310890Y-103710699D01*
X125305400Y-103654957D01*
X125305400Y-103654948D01*
X125288977Y-103488201D01*
X125224076Y-103274253D01*
X125118684Y-103077077D01*
X124976849Y-102904251D01*
X124933540Y-102868708D01*
X123750696Y-101685865D01*
X123715149Y-101642551D01*
X123542323Y-101500716D01*
X123345147Y-101395324D01*
X123183677Y-101346342D01*
X123239047Y-101329546D01*
X123371076Y-101258974D01*
X123486801Y-101164001D01*
X123510604Y-101134998D01*
X123565292Y-101080310D01*
X124728936Y-101080310D01*
X124737628Y-101141837D01*
X124830625Y-101351382D01*
X124962716Y-101538758D01*
X125128824Y-101696764D01*
X125322566Y-101819328D01*
X125536496Y-101901739D01*
X125762393Y-101940831D01*
X125945900Y-101781098D01*
X125945900Y-100901500D01*
X126199900Y-100901500D01*
X126199900Y-101781098D01*
X126383407Y-101940831D01*
X126609304Y-101901739D01*
X126823234Y-101819328D01*
X127016976Y-101696764D01*
X127183084Y-101538758D01*
X127315175Y-101351382D01*
X127408172Y-101141837D01*
X127416864Y-101080310D01*
X127291063Y-100901500D01*
X126199900Y-100901500D01*
X125945900Y-100901500D01*
X124854737Y-100901500D01*
X124728936Y-101080310D01*
X123565292Y-101080310D01*
X124381102Y-100264500D01*
X124800942Y-100264500D01*
X124737628Y-100407163D01*
X124728936Y-100468690D01*
X124854737Y-100647500D01*
X125619791Y-100647500D01*
X125620500Y-100647715D01*
X125790921Y-100664500D01*
X126354879Y-100664500D01*
X126525300Y-100647715D01*
X126526009Y-100647500D01*
X127291063Y-100647500D01*
X127416864Y-100468690D01*
X127408172Y-100407163D01*
X127315175Y-100197618D01*
X127273971Y-100139169D01*
X127374785Y-99950560D01*
X127441115Y-99731900D01*
X127463512Y-99504500D01*
X127441115Y-99277100D01*
X127378444Y-99070500D01*
X129535828Y-99070500D01*
X129538900Y-99284750D01*
X129697650Y-99443500D01*
X130771900Y-99443500D01*
X130771900Y-98594250D01*
X130613150Y-98435500D01*
X130173900Y-98432428D01*
X130049418Y-98444688D01*
X129929720Y-98480998D01*
X129819406Y-98539963D01*
X129722715Y-98619315D01*
X129643363Y-98716006D01*
X129584398Y-98826320D01*
X129548088Y-98946018D01*
X129535828Y-99070500D01*
X127378444Y-99070500D01*
X127377807Y-99068402D01*
X127412402Y-99003680D01*
X127448712Y-98883982D01*
X127460972Y-98759500D01*
X127460972Y-97709500D01*
X127448712Y-97585018D01*
X127412402Y-97465320D01*
X127353437Y-97355006D01*
X127274085Y-97258315D01*
X127177394Y-97178963D01*
X127067080Y-97119998D01*
X126947382Y-97083688D01*
X126822900Y-97071428D01*
X125322900Y-97071428D01*
X125198418Y-97083688D01*
X125078720Y-97119998D01*
X124968406Y-97178963D01*
X124917793Y-97220500D01*
X122743427Y-97220500D01*
X122734372Y-97190648D01*
X122652305Y-97037113D01*
X122541862Y-96902538D01*
X122530240Y-96893000D01*
X133349769Y-96893000D01*
X134015901Y-97559133D01*
X134015900Y-98455127D01*
X133995080Y-98443998D01*
X133875382Y-98407688D01*
X133750900Y-98395428D01*
X133536650Y-98398500D01*
X133377900Y-98557250D01*
X133377900Y-99631500D01*
X133397900Y-99631500D01*
X133397900Y-99885500D01*
X133377900Y-99885500D01*
X133377900Y-100959750D01*
X133536650Y-101118500D01*
X133750900Y-101121572D01*
X133875382Y-101109312D01*
X133995080Y-101073002D01*
X134105394Y-101014037D01*
X134202085Y-100934685D01*
X134267558Y-100854906D01*
X134272938Y-100861462D01*
X134407514Y-100971905D01*
X134561050Y-101053972D01*
X134727646Y-101104508D01*
X134900900Y-101121572D01*
X135400900Y-101121572D01*
X135574154Y-101104508D01*
X135740750Y-101053972D01*
X135894286Y-100971905D01*
X136028862Y-100861462D01*
X136139305Y-100726886D01*
X136221372Y-100573350D01*
X136271908Y-100406754D01*
X136288972Y-100233500D01*
X136288972Y-99283500D01*
X136285900Y-99252309D01*
X136285900Y-97144741D01*
X136291390Y-97088999D01*
X136285900Y-97033257D01*
X136285900Y-97033248D01*
X136269477Y-96866501D01*
X136204576Y-96652553D01*
X136099184Y-96455377D01*
X135957349Y-96282551D01*
X135914040Y-96247008D01*
X134661896Y-94994865D01*
X134626349Y-94951551D01*
X134453523Y-94809716D01*
X134256347Y-94704324D01*
X134042399Y-94639423D01*
X133875652Y-94623000D01*
X133875651Y-94623000D01*
X133819900Y-94617509D01*
X133764149Y-94623000D01*
X123758432Y-94623000D01*
X124266141Y-94115291D01*
X124309449Y-94079749D01*
X124451284Y-93906923D01*
X124556676Y-93709747D01*
X124621577Y-93495799D01*
X124638000Y-93329052D01*
X124643491Y-93273300D01*
X124638000Y-93217549D01*
X124638000Y-77025131D01*
X128168426Y-73494706D01*
X128202794Y-73467725D01*
X128247276Y-73415856D01*
X128255988Y-73407144D01*
X128283582Y-73373520D01*
X128348338Y-73298011D01*
X128354415Y-73287211D01*
X128362283Y-73277624D01*
X128409194Y-73189859D01*
X128457976Y-73103164D01*
X128461831Y-73091380D01*
X128467675Y-73080447D01*
X128496557Y-72985238D01*
X128527495Y-72890672D01*
X128528977Y-72878364D01*
X128532576Y-72866500D01*
X128542327Y-72767500D01*
X128547526Y-72724320D01*
X128547793Y-72711998D01*
X128554490Y-72644001D01*
X128550208Y-72600522D01*
X128577300Y-71349873D01*
X128630802Y-71249780D01*
X128667112Y-71130082D01*
X128679372Y-71005600D01*
X128679372Y-69405600D01*
X128667112Y-69281118D01*
X128630802Y-69161420D01*
X128624945Y-69150463D01*
X128663087Y-67389765D01*
X128876851Y-66919537D01*
X128920324Y-67062847D01*
%TA.AperFunction,Conductor*%
D24*
G36*
X128920324Y-67062847D02*
G01*
X129025716Y-67260023D01*
X129167551Y-67432849D01*
X129340377Y-67574684D01*
X129537553Y-67680076D01*
X129751501Y-67744977D01*
X129918248Y-67761400D01*
X129918249Y-67761400D01*
X129974000Y-67766891D01*
X130029752Y-67761400D01*
X133732969Y-67761400D01*
X135683009Y-69711441D01*
X135718551Y-69754749D01*
X135891377Y-69896584D01*
X136088553Y-70001976D01*
X136302501Y-70066877D01*
X136469248Y-70083300D01*
X136469257Y-70083300D01*
X136524999Y-70088790D01*
X136580741Y-70083300D01*
X138981052Y-70083300D01*
X139147799Y-70066877D01*
X139361747Y-70001976D01*
X139558923Y-69896584D01*
X139731749Y-69754749D01*
X139814000Y-69654526D01*
X139814001Y-110178099D01*
X139810358Y-110219101D01*
X139818025Y-110289986D01*
X139824998Y-110360786D01*
X139826061Y-110364292D01*
X139826456Y-110367940D01*
X139847786Y-110435909D01*
X139868455Y-110504047D01*
X139887856Y-110540343D01*
X141967676Y-115428736D01*
X141897100Y-115534360D01*
X141780575Y-115359968D01*
X141573732Y-115153125D01*
X141330511Y-114990610D01*
X141060258Y-114878668D01*
X140773360Y-114821600D01*
X140480840Y-114821600D01*
X140193942Y-114878668D01*
X139923689Y-114990610D01*
X139680468Y-115153125D01*
X139473625Y-115359968D01*
X139357100Y-115534360D01*
X139240575Y-115359968D01*
X139033732Y-115153125D01*
X138790511Y-114990610D01*
X138520258Y-114878668D01*
X138233360Y-114821600D01*
X137940840Y-114821600D01*
X137653942Y-114878668D01*
X137383689Y-114990610D01*
X137140468Y-115153125D01*
X136933625Y-115359968D01*
X136817100Y-115534360D01*
X136700575Y-115359968D01*
X136493732Y-115153125D01*
X136250511Y-114990610D01*
X135980258Y-114878668D01*
X135693360Y-114821600D01*
X135400840Y-114821600D01*
X135113942Y-114878668D01*
X134843689Y-114990610D01*
X134600468Y-115153125D01*
X134393625Y-115359968D01*
X134277100Y-115534360D01*
X134160575Y-115359968D01*
X133953732Y-115153125D01*
X133710511Y-114990610D01*
X133440258Y-114878668D01*
X133153360Y-114821600D01*
X132860840Y-114821600D01*
X132573942Y-114878668D01*
X132303689Y-114990610D01*
X132060468Y-115153125D01*
X131853625Y-115359968D01*
X131737100Y-115534360D01*
X131620575Y-115359968D01*
X131413732Y-115153125D01*
X131170511Y-114990610D01*
X130900258Y-114878668D01*
X130613360Y-114821600D01*
X130320840Y-114821600D01*
X130033942Y-114878668D01*
X129763689Y-114990610D01*
X129520468Y-115153125D01*
X129313625Y-115359968D01*
X129197100Y-115534360D01*
X129080575Y-115359968D01*
X128873732Y-115153125D01*
X128630511Y-114990610D01*
X128360258Y-114878668D01*
X128073360Y-114821600D01*
X127780840Y-114821600D01*
X127493942Y-114878668D01*
X127223689Y-114990610D01*
X126980468Y-115153125D01*
X126773625Y-115359968D01*
X126657100Y-115534360D01*
X126540575Y-115359968D01*
X126522100Y-115341493D01*
X126522100Y-109427900D01*
X127998349Y-109427900D01*
X128054100Y-109433391D01*
X128109851Y-109427900D01*
X128109852Y-109427900D01*
X128276599Y-109411477D01*
X128490547Y-109346576D01*
X128687723Y-109241184D01*
X128860549Y-109099349D01*
X128896096Y-109056035D01*
X131662041Y-106290091D01*
X131705349Y-106254549D01*
X131847184Y-106081723D01*
X131952576Y-105884547D01*
X132017477Y-105670599D01*
X132033900Y-105503852D01*
X132039391Y-105448100D01*
X132033900Y-105392348D01*
X132033900Y-102586527D01*
X132167183Y-102424122D01*
X132272575Y-102226946D01*
X132337476Y-102012998D01*
X132359390Y-101790499D01*
X132337476Y-101568000D01*
X132272575Y-101354053D01*
X132261972Y-101334216D01*
X132261972Y-101220500D01*
X132244908Y-101047246D01*
X132194372Y-100880650D01*
X132112305Y-100727114D01*
X132001862Y-100592538D01*
X131995306Y-100587158D01*
X132075085Y-100521685D01*
X132112883Y-100475628D01*
X132112828Y-100483500D01*
X132125088Y-100607982D01*
X132161398Y-100727680D01*
X132220363Y-100837994D01*
X132299715Y-100934685D01*
X132396406Y-101014037D01*
X132506720Y-101073002D01*
X132626418Y-101109312D01*
X132750900Y-101121572D01*
X132965150Y-101118500D01*
X133123900Y-100959750D01*
X133123900Y-99885500D01*
X133103900Y-99885500D01*
X133103900Y-99631500D01*
X133123900Y-99631500D01*
X133123900Y-98557250D01*
X132965150Y-98398500D01*
X132750900Y-98395428D01*
X132626418Y-98407688D01*
X132506720Y-98443998D01*
X132396406Y-98502963D01*
X132299715Y-98582315D01*
X132220363Y-98679006D01*
X132177511Y-98759174D01*
X132154437Y-98716006D01*
X132075085Y-98619315D01*
X131978394Y-98539963D01*
X131868080Y-98480998D01*
X131748382Y-98444688D01*
X131623900Y-98432428D01*
X131184650Y-98435500D01*
X131025900Y-98594250D01*
X131025900Y-99443500D01*
X131045900Y-99443500D01*
X131045900Y-99697500D01*
X131025900Y-99697500D01*
X131025900Y-99717500D01*
X130771900Y-99717500D01*
X130771900Y-99697500D01*
X129697650Y-99697500D01*
X129538900Y-99856250D01*
X129535828Y-100070500D01*
X129548088Y-100194982D01*
X129584398Y-100314680D01*
X129643363Y-100424994D01*
X129722715Y-100521685D01*
X129802494Y-100587158D01*
X129795938Y-100592538D01*
X129685495Y-100727114D01*
X129603428Y-100880650D01*
X129552892Y-101047246D01*
X129535828Y-101220500D01*
X129535828Y-101720500D01*
X129552892Y-101893754D01*
X129603428Y-102060350D01*
X129685495Y-102213886D01*
X129763900Y-102309424D01*
X129763901Y-104977967D01*
X127583969Y-107157900D01*
X127199037Y-107157900D01*
X127208472Y-107062100D01*
X127205400Y-106622850D01*
X127046650Y-106464100D01*
X126197400Y-106464100D01*
X126197400Y-106484100D01*
X125943400Y-106484100D01*
X125943400Y-106464100D01*
X125923400Y-106464100D01*
X125923400Y-106210100D01*
X125943400Y-106210100D01*
X125943400Y-105135850D01*
X126197400Y-105135850D01*
X126197400Y-106210100D01*
X127046650Y-106210100D01*
X127205400Y-106051350D01*
X127208472Y-105612100D01*
X127196212Y-105487618D01*
X127159902Y-105367920D01*
X127100937Y-105257606D01*
X127021585Y-105160915D01*
X126924894Y-105081563D01*
X126814580Y-105022598D01*
X126694882Y-104986288D01*
X126570400Y-104974028D01*
X126356150Y-104977100D01*
X126197400Y-105135850D01*
X125943400Y-105135850D01*
X125784650Y-104977100D01*
X125570400Y-104974028D01*
X125445918Y-104986288D01*
X125326220Y-105022598D01*
X125305400Y-105033727D01*
X125305400Y-103766441D01*
X125310890Y-103710699D01*
X125305400Y-103654957D01*
X125305400Y-103654948D01*
X125288977Y-103488201D01*
X125224076Y-103274253D01*
X125118684Y-103077077D01*
X124976849Y-102904251D01*
X124933540Y-102868708D01*
X123750696Y-101685865D01*
X123715149Y-101642551D01*
X123542323Y-101500716D01*
X123345147Y-101395324D01*
X123183677Y-101346342D01*
X123239047Y-101329546D01*
X123371076Y-101258974D01*
X123486801Y-101164001D01*
X123510604Y-101134998D01*
X123565292Y-101080310D01*
X124728936Y-101080310D01*
X124737628Y-101141837D01*
X124830625Y-101351382D01*
X124962716Y-101538758D01*
X125128824Y-101696764D01*
X125322566Y-101819328D01*
X125536496Y-101901739D01*
X125762393Y-101940831D01*
X125945900Y-101781098D01*
X125945900Y-100901500D01*
X126199900Y-100901500D01*
X126199900Y-101781098D01*
X126383407Y-101940831D01*
X126609304Y-101901739D01*
X126823234Y-101819328D01*
X127016976Y-101696764D01*
X127183084Y-101538758D01*
X127315175Y-101351382D01*
X127408172Y-101141837D01*
X127416864Y-101080310D01*
X127291063Y-100901500D01*
X126199900Y-100901500D01*
X125945900Y-100901500D01*
X124854737Y-100901500D01*
X124728936Y-101080310D01*
X123565292Y-101080310D01*
X124381102Y-100264500D01*
X124800942Y-100264500D01*
X124737628Y-100407163D01*
X124728936Y-100468690D01*
X124854737Y-100647500D01*
X125619791Y-100647500D01*
X125620500Y-100647715D01*
X125790921Y-100664500D01*
X126354879Y-100664500D01*
X126525300Y-100647715D01*
X126526009Y-100647500D01*
X127291063Y-100647500D01*
X127416864Y-100468690D01*
X127408172Y-100407163D01*
X127315175Y-100197618D01*
X127273971Y-100139169D01*
X127374785Y-99950560D01*
X127441115Y-99731900D01*
X127463512Y-99504500D01*
X127441115Y-99277100D01*
X127378444Y-99070500D01*
X129535828Y-99070500D01*
X129538900Y-99284750D01*
X129697650Y-99443500D01*
X130771900Y-99443500D01*
X130771900Y-98594250D01*
X130613150Y-98435500D01*
X130173900Y-98432428D01*
X130049418Y-98444688D01*
X129929720Y-98480998D01*
X129819406Y-98539963D01*
X129722715Y-98619315D01*
X129643363Y-98716006D01*
X129584398Y-98826320D01*
X129548088Y-98946018D01*
X129535828Y-99070500D01*
X127378444Y-99070500D01*
X127377807Y-99068402D01*
X127412402Y-99003680D01*
X127448712Y-98883982D01*
X127460972Y-98759500D01*
X127460972Y-97709500D01*
X127448712Y-97585018D01*
X127412402Y-97465320D01*
X127353437Y-97355006D01*
X127274085Y-97258315D01*
X127177394Y-97178963D01*
X127067080Y-97119998D01*
X126947382Y-97083688D01*
X126822900Y-97071428D01*
X125322900Y-97071428D01*
X125198418Y-97083688D01*
X125078720Y-97119998D01*
X124968406Y-97178963D01*
X124917793Y-97220500D01*
X122743427Y-97220500D01*
X122734372Y-97190648D01*
X122652305Y-97037113D01*
X122541862Y-96902538D01*
X122530240Y-96893000D01*
X133349769Y-96893000D01*
X134015901Y-97559133D01*
X134015900Y-98455127D01*
X133995080Y-98443998D01*
X133875382Y-98407688D01*
X133750900Y-98395428D01*
X133536650Y-98398500D01*
X133377900Y-98557250D01*
X133377900Y-99631500D01*
X133397900Y-99631500D01*
X133397900Y-99885500D01*
X133377900Y-99885500D01*
X133377900Y-100959750D01*
X133536650Y-101118500D01*
X133750900Y-101121572D01*
X133875382Y-101109312D01*
X133995080Y-101073002D01*
X134105394Y-101014037D01*
X134202085Y-100934685D01*
X134267558Y-100854906D01*
X134272938Y-100861462D01*
X134407514Y-100971905D01*
X134561050Y-101053972D01*
X134727646Y-101104508D01*
X134900900Y-101121572D01*
X135400900Y-101121572D01*
X135574154Y-101104508D01*
X135740750Y-101053972D01*
X135894286Y-100971905D01*
X136028862Y-100861462D01*
X136139305Y-100726886D01*
X136221372Y-100573350D01*
X136271908Y-100406754D01*
X136288972Y-100233500D01*
X136288972Y-99283500D01*
X136285900Y-99252309D01*
X136285900Y-97144741D01*
X136291390Y-97088999D01*
X136285900Y-97033257D01*
X136285900Y-97033248D01*
X136269477Y-96866501D01*
X136204576Y-96652553D01*
X136099184Y-96455377D01*
X135957349Y-96282551D01*
X135914040Y-96247008D01*
X134661896Y-94994865D01*
X134626349Y-94951551D01*
X134453523Y-94809716D01*
X134256347Y-94704324D01*
X134042399Y-94639423D01*
X133875652Y-94623000D01*
X133875651Y-94623000D01*
X133819900Y-94617509D01*
X133764149Y-94623000D01*
X123758432Y-94623000D01*
X124266141Y-94115291D01*
X124309449Y-94079749D01*
X124451284Y-93906923D01*
X124556676Y-93709747D01*
X124621577Y-93495799D01*
X124638000Y-93329052D01*
X124643491Y-93273300D01*
X124638000Y-93217549D01*
X124638000Y-77025131D01*
X128168426Y-73494706D01*
X128202794Y-73467725D01*
X128247276Y-73415856D01*
X128255988Y-73407144D01*
X128283582Y-73373520D01*
X128348338Y-73298011D01*
X128354415Y-73287211D01*
X128362283Y-73277624D01*
X128409194Y-73189859D01*
X128457976Y-73103164D01*
X128461831Y-73091380D01*
X128467675Y-73080447D01*
X128496557Y-72985238D01*
X128527495Y-72890672D01*
X128528977Y-72878364D01*
X128532576Y-72866500D01*
X128542327Y-72767500D01*
X128547526Y-72724320D01*
X128547793Y-72711998D01*
X128554490Y-72644001D01*
X128550208Y-72600522D01*
X128577300Y-71349873D01*
X128630802Y-71249780D01*
X128667112Y-71130082D01*
X128679372Y-71005600D01*
X128679372Y-69405600D01*
X128667112Y-69281118D01*
X128630802Y-69161420D01*
X128624945Y-69150463D01*
X128663087Y-67389765D01*
X128876851Y-66919537D01*
X128920324Y-67062847D01*
G37*
%TD.AperFunction*%
D23*
X141622815Y-66183185D02*
X141719506Y-66262537D01*
X141814000Y-66313046D01*
X141814001Y-108673913D01*
X141810324Y-108710704D01*
X141814001Y-108748594D01*
X141814001Y-108749133D01*
X141817552Y-108785191D01*
X141824784Y-108859710D01*
X141824944Y-108860241D01*
X141824998Y-108860786D01*
X141846521Y-108931739D01*
X141857198Y-108967119D01*
X141857407Y-108967625D01*
X141868455Y-109004047D01*
X141885881Y-109036649D01*
X144517041Y-115414720D01*
X144437100Y-115534360D01*
X144320575Y-115359968D01*
X144113732Y-115153125D01*
X143870511Y-114990610D01*
X143600258Y-114878668D01*
X143365642Y-114832000D01*
X141334000Y-110056848D01*
X141334000Y-66313046D01*
X141428494Y-66262537D01*
X141525185Y-66183185D01*
X141574000Y-66123704D01*
X141622815Y-66183185D01*
%TA.AperFunction,Conductor*%
D24*
G36*
X141622815Y-66183185D02*
G01*
X141719506Y-66262537D01*
X141814000Y-66313046D01*
X141814001Y-108673913D01*
X141810324Y-108710704D01*
X141814001Y-108748594D01*
X141814001Y-108749133D01*
X141817552Y-108785191D01*
X141824784Y-108859710D01*
X141824944Y-108860241D01*
X141824998Y-108860786D01*
X141846521Y-108931739D01*
X141857198Y-108967119D01*
X141857407Y-108967625D01*
X141868455Y-109004047D01*
X141885881Y-109036649D01*
X144517041Y-115414720D01*
X144437100Y-115534360D01*
X144320575Y-115359968D01*
X144113732Y-115153125D01*
X143870511Y-114990610D01*
X143600258Y-114878668D01*
X143365642Y-114832000D01*
X141334000Y-110056848D01*
X141334000Y-66313046D01*
X141428494Y-66262537D01*
X141525185Y-66183185D01*
X141574000Y-66123704D01*
X141622815Y-66183185D01*
G37*
%TD.AperFunction*%
D23*
X123222116Y-107695723D02*
X123363951Y-107868549D01*
X123407265Y-107904096D01*
X124252101Y-108748933D01*
X124252100Y-115147873D01*
X124227637Y-115102106D01*
X124148285Y-115005415D01*
X124051594Y-114926063D01*
X123941280Y-114867098D01*
X123821582Y-114830788D01*
X123697100Y-114818528D01*
X121997100Y-114818528D01*
X121872618Y-114830788D01*
X121752920Y-114867098D01*
X121642606Y-114926063D01*
X121545915Y-115005415D01*
X121466563Y-115102106D01*
X121429417Y-115171600D01*
X119138932Y-115171600D01*
X119067200Y-115099869D01*
X119067200Y-109587730D01*
X119221732Y-109484475D01*
X119353587Y-109352620D01*
X119375598Y-109425180D01*
X119434563Y-109535494D01*
X119513915Y-109632185D01*
X119610606Y-109711537D01*
X119720920Y-109770502D01*
X119840618Y-109806812D01*
X119965100Y-109819072D01*
X120704374Y-109819072D01*
X120798578Y-109896383D01*
X120995753Y-110001775D01*
X121209700Y-110066677D01*
X121432199Y-110088590D01*
X121654698Y-110066677D01*
X121868646Y-110001775D01*
X122065822Y-109896383D01*
X122238648Y-109754548D01*
X122380483Y-109581722D01*
X122485875Y-109384546D01*
X122550777Y-109170598D01*
X122572690Y-108948099D01*
X122550777Y-108725600D01*
X122485875Y-108511653D01*
X122400083Y-108351148D01*
X123164083Y-107587149D01*
X123222116Y-107695723D01*
%TA.AperFunction,Conductor*%
D24*
G36*
X123222116Y-107695723D02*
G01*
X123363951Y-107868549D01*
X123407265Y-107904096D01*
X124252101Y-108748933D01*
X124252100Y-115147873D01*
X124227637Y-115102106D01*
X124148285Y-115005415D01*
X124051594Y-114926063D01*
X123941280Y-114867098D01*
X123821582Y-114830788D01*
X123697100Y-114818528D01*
X121997100Y-114818528D01*
X121872618Y-114830788D01*
X121752920Y-114867098D01*
X121642606Y-114926063D01*
X121545915Y-115005415D01*
X121466563Y-115102106D01*
X121429417Y-115171600D01*
X119138932Y-115171600D01*
X119067200Y-115099869D01*
X119067200Y-109587730D01*
X119221732Y-109484475D01*
X119353587Y-109352620D01*
X119375598Y-109425180D01*
X119434563Y-109535494D01*
X119513915Y-109632185D01*
X119610606Y-109711537D01*
X119720920Y-109770502D01*
X119840618Y-109806812D01*
X119965100Y-109819072D01*
X120704374Y-109819072D01*
X120798578Y-109896383D01*
X120995753Y-110001775D01*
X121209700Y-110066677D01*
X121432199Y-110088590D01*
X121654698Y-110066677D01*
X121868646Y-110001775D01*
X122065822Y-109896383D01*
X122238648Y-109754548D01*
X122380483Y-109581722D01*
X122485875Y-109384546D01*
X122550777Y-109170598D01*
X122572690Y-108948099D01*
X122550777Y-108725600D01*
X122485875Y-108511653D01*
X122400083Y-108351148D01*
X123164083Y-107587149D01*
X123222116Y-107695723D01*
G37*
%TD.AperFunction*%
D23*
X119146828Y-100886502D02*
X119163892Y-101059756D01*
X119214428Y-101226352D01*
X119296495Y-101379887D01*
X119406938Y-101514462D01*
X119433791Y-101536500D01*
X119406938Y-101558538D01*
X119296495Y-101693113D01*
X119214428Y-101846648D01*
X119163892Y-102013244D01*
X119146828Y-102186498D01*
X119146828Y-102711502D01*
X119163892Y-102884756D01*
X119214428Y-103051352D01*
X119296495Y-103204887D01*
X119406938Y-103339462D01*
X119541513Y-103449905D01*
X119695048Y-103531972D01*
X119861644Y-103582508D01*
X120034898Y-103599572D01*
X120934902Y-103599572D01*
X121093007Y-103584000D01*
X122438569Y-103584000D01*
X123035400Y-104180832D01*
X123035401Y-105202100D01*
X122864741Y-105202100D01*
X122808999Y-105196610D01*
X122753257Y-105202100D01*
X122753248Y-105202100D01*
X122586501Y-105218523D01*
X122372553Y-105283424D01*
X122175377Y-105388816D01*
X122002551Y-105530651D01*
X121967009Y-105573959D01*
X120698041Y-106842928D01*
X119965100Y-106842928D01*
X119840618Y-106855188D01*
X119720920Y-106891498D01*
X119610606Y-106950463D01*
X119513915Y-107029815D01*
X119434563Y-107126506D01*
X119375598Y-107236820D01*
X119353587Y-107309380D01*
X119221732Y-107177525D01*
X118978511Y-107015010D01*
X118708258Y-106903068D01*
X118444900Y-106850682D01*
X118444900Y-100698410D01*
X118455802Y-100702926D01*
X118655761Y-100742700D01*
X118859639Y-100742700D01*
X119059598Y-100702926D01*
X119146828Y-100666794D01*
X119146828Y-100886502D01*
%TA.AperFunction,Conductor*%
D24*
G36*
X119146828Y-100886502D02*
G01*
X119163892Y-101059756D01*
X119214428Y-101226352D01*
X119296495Y-101379887D01*
X119406938Y-101514462D01*
X119433791Y-101536500D01*
X119406938Y-101558538D01*
X119296495Y-101693113D01*
X119214428Y-101846648D01*
X119163892Y-102013244D01*
X119146828Y-102186498D01*
X119146828Y-102711502D01*
X119163892Y-102884756D01*
X119214428Y-103051352D01*
X119296495Y-103204887D01*
X119406938Y-103339462D01*
X119541513Y-103449905D01*
X119695048Y-103531972D01*
X119861644Y-103582508D01*
X120034898Y-103599572D01*
X120934902Y-103599572D01*
X121093007Y-103584000D01*
X122438569Y-103584000D01*
X123035400Y-104180832D01*
X123035401Y-105202100D01*
X122864741Y-105202100D01*
X122808999Y-105196610D01*
X122753257Y-105202100D01*
X122753248Y-105202100D01*
X122586501Y-105218523D01*
X122372553Y-105283424D01*
X122175377Y-105388816D01*
X122002551Y-105530651D01*
X121967009Y-105573959D01*
X120698041Y-106842928D01*
X119965100Y-106842928D01*
X119840618Y-106855188D01*
X119720920Y-106891498D01*
X119610606Y-106950463D01*
X119513915Y-107029815D01*
X119434563Y-107126506D01*
X119375598Y-107236820D01*
X119353587Y-107309380D01*
X119221732Y-107177525D01*
X118978511Y-107015010D01*
X118708258Y-106903068D01*
X118444900Y-106850682D01*
X118444900Y-100698410D01*
X118455802Y-100702926D01*
X118655761Y-100742700D01*
X118859639Y-100742700D01*
X119059598Y-100702926D01*
X119146828Y-100666794D01*
X119146828Y-100886502D01*
G37*
%TD.AperFunction*%
D23*
X122368001Y-92803167D02*
X120255164Y-94916005D01*
X120211851Y-94951551D01*
X120176308Y-94994860D01*
X119908045Y-95263124D01*
X119696362Y-95474807D01*
X119696357Y-95474811D01*
X119063264Y-96107905D01*
X119019951Y-96143451D01*
X118878116Y-96316277D01*
X118772725Y-96513453D01*
X118772724Y-96513454D01*
X118707823Y-96727402D01*
X118696191Y-96845500D01*
X118102252Y-96845500D01*
X118046500Y-96840009D01*
X117990748Y-96845500D01*
X117824001Y-96861923D01*
X117760700Y-96881125D01*
X117760700Y-96786361D01*
X117720926Y-96586402D01*
X117642905Y-96398044D01*
X117529637Y-96228526D01*
X117485700Y-96184589D01*
X117485700Y-88681765D01*
X117541145Y-88578036D01*
X117584602Y-88434775D01*
X117595599Y-88323122D01*
X117595599Y-88323114D01*
X117599275Y-88285789D01*
X117595599Y-88248464D01*
X117595599Y-80515868D01*
X117653709Y-80536481D01*
X117883600Y-80415814D01*
X117883600Y-79222000D01*
X118137600Y-79222000D01*
X118137600Y-80415814D01*
X118367491Y-80536481D01*
X118641852Y-80439157D01*
X118891955Y-80290178D01*
X119108188Y-80095269D01*
X119282241Y-79861920D01*
X119407425Y-79599099D01*
X119452076Y-79451890D01*
X119330755Y-79222000D01*
X118137600Y-79222000D01*
X117883600Y-79222000D01*
X117863600Y-79222000D01*
X117863600Y-78968000D01*
X117883600Y-78968000D01*
X117883600Y-78948000D01*
X118137600Y-78948000D01*
X118137600Y-78968000D01*
X119330755Y-78968000D01*
X119452076Y-78738110D01*
X119407425Y-78590901D01*
X119282241Y-78328080D01*
X119108188Y-78094731D01*
X118891955Y-77899822D01*
X118775066Y-77830195D01*
X118957232Y-77708475D01*
X118975707Y-77690000D01*
X122368000Y-77690000D01*
X122368001Y-92803167D01*
%TA.AperFunction,Conductor*%
D24*
G36*
X122368001Y-92803167D02*
G01*
X120255164Y-94916005D01*
X120211851Y-94951551D01*
X120176308Y-94994860D01*
X119908045Y-95263124D01*
X119696362Y-95474807D01*
X119696357Y-95474811D01*
X119063264Y-96107905D01*
X119019951Y-96143451D01*
X118878116Y-96316277D01*
X118772725Y-96513453D01*
X118772724Y-96513454D01*
X118707823Y-96727402D01*
X118696191Y-96845500D01*
X118102252Y-96845500D01*
X118046500Y-96840009D01*
X117990748Y-96845500D01*
X117824001Y-96861923D01*
X117760700Y-96881125D01*
X117760700Y-96786361D01*
X117720926Y-96586402D01*
X117642905Y-96398044D01*
X117529637Y-96228526D01*
X117485700Y-96184589D01*
X117485700Y-88681765D01*
X117541145Y-88578036D01*
X117584602Y-88434775D01*
X117595599Y-88323122D01*
X117595599Y-88323114D01*
X117599275Y-88285789D01*
X117595599Y-88248464D01*
X117595599Y-80515868D01*
X117653709Y-80536481D01*
X117883600Y-80415814D01*
X117883600Y-79222000D01*
X118137600Y-79222000D01*
X118137600Y-80415814D01*
X118367491Y-80536481D01*
X118641852Y-80439157D01*
X118891955Y-80290178D01*
X119108188Y-80095269D01*
X119282241Y-79861920D01*
X119407425Y-79599099D01*
X119452076Y-79451890D01*
X119330755Y-79222000D01*
X118137600Y-79222000D01*
X117883600Y-79222000D01*
X117863600Y-79222000D01*
X117863600Y-78968000D01*
X117883600Y-78968000D01*
X117883600Y-78948000D01*
X118137600Y-78948000D01*
X118137600Y-78968000D01*
X119330755Y-78968000D01*
X119452076Y-78738110D01*
X119407425Y-78590901D01*
X119282241Y-78328080D01*
X119108188Y-78094731D01*
X118891955Y-77899822D01*
X118775066Y-77830195D01*
X118957232Y-77708475D01*
X118975707Y-77690000D01*
X122368000Y-77690000D01*
X122368001Y-92803167D01*
G37*
%TD.AperFunction*%
D23*
X127059047Y-65433066D02*
X126520325Y-66618119D01*
X126489424Y-66673036D01*
X126456851Y-66772600D01*
X126423026Y-66871838D01*
X126422097Y-66878828D01*
X126419905Y-66885528D01*
X126407373Y-66989601D01*
X126393568Y-67093464D01*
X126397611Y-67156349D01*
X126362541Y-68775285D01*
X126316818Y-68779788D01*
X126197120Y-68816098D01*
X126086806Y-68875063D01*
X125990115Y-68954415D01*
X125910763Y-69051106D01*
X125851798Y-69161420D01*
X125815488Y-69281118D01*
X125803228Y-69405600D01*
X125803228Y-69412815D01*
X125734002Y-69392503D01*
X124920905Y-70205600D01*
X125734002Y-71018697D01*
X125803228Y-70998385D01*
X125803228Y-71005600D01*
X125815488Y-71130082D01*
X125851798Y-71249780D01*
X125910763Y-71360094D01*
X125990115Y-71456785D01*
X126086806Y-71536137D01*
X126197120Y-71595102D01*
X126300775Y-71626545D01*
X126289138Y-72163730D01*
X124262072Y-74190797D01*
X124262072Y-73439000D01*
X124245008Y-73265746D01*
X124194472Y-73099150D01*
X124112405Y-72945614D01*
X124001962Y-72811038D01*
X123867386Y-72700595D01*
X123829520Y-72680355D01*
X123893126Y-72526798D01*
X123932900Y-72326839D01*
X123932900Y-72122961D01*
X123893126Y-71923002D01*
X123815105Y-71734644D01*
X123701837Y-71565126D01*
X123557674Y-71420963D01*
X123388156Y-71307695D01*
X123199798Y-71229674D01*
X123042080Y-71198302D01*
X123928203Y-71198302D01*
X123999786Y-71442271D01*
X124255296Y-71563171D01*
X124529484Y-71631900D01*
X124811812Y-71645817D01*
X125091430Y-71604387D01*
X125357592Y-71509203D01*
X125482814Y-71442271D01*
X125554397Y-71198302D01*
X124741300Y-70385205D01*
X123928203Y-71198302D01*
X123042080Y-71198302D01*
X122999839Y-71189900D01*
X122809010Y-71189900D01*
X122809010Y-70553409D01*
X123312219Y-70050201D01*
X123301083Y-70276112D01*
X123342513Y-70555730D01*
X123437697Y-70821892D01*
X123504629Y-70947114D01*
X123748598Y-71018697D01*
X124561695Y-70205600D01*
X124547553Y-70191458D01*
X124727158Y-70011853D01*
X124741300Y-70025995D01*
X125554397Y-69212898D01*
X125482814Y-68968929D01*
X125227304Y-68848029D01*
X124953116Y-68779300D01*
X124670788Y-68765383D01*
X124562429Y-68781438D01*
X124629556Y-68655855D01*
X124673013Y-68512594D01*
X124684010Y-68400941D01*
X124684010Y-68400932D01*
X124687686Y-68363609D01*
X124684010Y-68326286D01*
X124684010Y-65897145D01*
X124687686Y-65859820D01*
X124684010Y-65822495D01*
X124684010Y-65822487D01*
X124673013Y-65710834D01*
X124629556Y-65567573D01*
X124558984Y-65435544D01*
X124464011Y-65319819D01*
X124435013Y-65296021D01*
X123646037Y-64507045D01*
X123766182Y-64495212D01*
X123885880Y-64458902D01*
X123996194Y-64399937D01*
X124092885Y-64320585D01*
X124158358Y-64240806D01*
X124163738Y-64247362D01*
X124298314Y-64357805D01*
X124451850Y-64439872D01*
X124618446Y-64490408D01*
X124791700Y-64507472D01*
X125291700Y-64507472D01*
X125464954Y-64490408D01*
X125631550Y-64439872D01*
X125785086Y-64357805D01*
X125919662Y-64247362D01*
X126030105Y-64112786D01*
X126087184Y-64006000D01*
X126472175Y-64006000D01*
X127059047Y-65433066D01*
%TA.AperFunction,Conductor*%
D24*
G36*
X127059047Y-65433066D02*
G01*
X126520325Y-66618119D01*
X126489424Y-66673036D01*
X126456851Y-66772600D01*
X126423026Y-66871838D01*
X126422097Y-66878828D01*
X126419905Y-66885528D01*
X126407373Y-66989601D01*
X126393568Y-67093464D01*
X126397611Y-67156349D01*
X126362541Y-68775285D01*
X126316818Y-68779788D01*
X126197120Y-68816098D01*
X126086806Y-68875063D01*
X125990115Y-68954415D01*
X125910763Y-69051106D01*
X125851798Y-69161420D01*
X125815488Y-69281118D01*
X125803228Y-69405600D01*
X125803228Y-69412815D01*
X125734002Y-69392503D01*
X124920905Y-70205600D01*
X125734002Y-71018697D01*
X125803228Y-70998385D01*
X125803228Y-71005600D01*
X125815488Y-71130082D01*
X125851798Y-71249780D01*
X125910763Y-71360094D01*
X125990115Y-71456785D01*
X126086806Y-71536137D01*
X126197120Y-71595102D01*
X126300775Y-71626545D01*
X126289138Y-72163730D01*
X124262072Y-74190797D01*
X124262072Y-73439000D01*
X124245008Y-73265746D01*
X124194472Y-73099150D01*
X124112405Y-72945614D01*
X124001962Y-72811038D01*
X123867386Y-72700595D01*
X123829520Y-72680355D01*
X123893126Y-72526798D01*
X123932900Y-72326839D01*
X123932900Y-72122961D01*
X123893126Y-71923002D01*
X123815105Y-71734644D01*
X123701837Y-71565126D01*
X123557674Y-71420963D01*
X123388156Y-71307695D01*
X123199798Y-71229674D01*
X123042080Y-71198302D01*
X123928203Y-71198302D01*
X123999786Y-71442271D01*
X124255296Y-71563171D01*
X124529484Y-71631900D01*
X124811812Y-71645817D01*
X125091430Y-71604387D01*
X125357592Y-71509203D01*
X125482814Y-71442271D01*
X125554397Y-71198302D01*
X124741300Y-70385205D01*
X123928203Y-71198302D01*
X123042080Y-71198302D01*
X122999839Y-71189900D01*
X122809010Y-71189900D01*
X122809010Y-70553409D01*
X123312219Y-70050201D01*
X123301083Y-70276112D01*
X123342513Y-70555730D01*
X123437697Y-70821892D01*
X123504629Y-70947114D01*
X123748598Y-71018697D01*
X124561695Y-70205600D01*
X124547553Y-70191458D01*
X124727158Y-70011853D01*
X124741300Y-70025995D01*
X125554397Y-69212898D01*
X125482814Y-68968929D01*
X125227304Y-68848029D01*
X124953116Y-68779300D01*
X124670788Y-68765383D01*
X124562429Y-68781438D01*
X124629556Y-68655855D01*
X124673013Y-68512594D01*
X124684010Y-68400941D01*
X124684010Y-68400932D01*
X124687686Y-68363609D01*
X124684010Y-68326286D01*
X124684010Y-65897145D01*
X124687686Y-65859820D01*
X124684010Y-65822495D01*
X124684010Y-65822487D01*
X124673013Y-65710834D01*
X124629556Y-65567573D01*
X124558984Y-65435544D01*
X124464011Y-65319819D01*
X124435013Y-65296021D01*
X123646037Y-64507045D01*
X123766182Y-64495212D01*
X123885880Y-64458902D01*
X123996194Y-64399937D01*
X124092885Y-64320585D01*
X124158358Y-64240806D01*
X124163738Y-64247362D01*
X124298314Y-64357805D01*
X124451850Y-64439872D01*
X124618446Y-64490408D01*
X124791700Y-64507472D01*
X125291700Y-64507472D01*
X125464954Y-64490408D01*
X125631550Y-64439872D01*
X125785086Y-64357805D01*
X125919662Y-64247362D01*
X126030105Y-64112786D01*
X126087184Y-64006000D01*
X126472175Y-64006000D01*
X127059047Y-65433066D01*
G37*
%TD.AperFunction*%
D23*
X118242148Y-52541472D02*
X118271058Y-52550242D01*
X118268324Y-52578000D01*
X118272001Y-52615333D01*
X118282998Y-52726986D01*
X118290226Y-52750815D01*
X118326454Y-52870246D01*
X118397026Y-53002276D01*
X118458776Y-53077518D01*
X118492000Y-53118001D01*
X118520998Y-53141799D01*
X118800417Y-53421218D01*
X118811604Y-53458098D01*
X118882176Y-53590128D01*
X118910176Y-53624246D01*
X118977149Y-53705853D01*
X119006153Y-53729656D01*
X119395295Y-54118798D01*
X119419098Y-54147802D01*
X119534823Y-54242775D01*
X119666852Y-54313347D01*
X119810113Y-54356804D01*
X119921766Y-54367801D01*
X119921775Y-54367801D01*
X119959098Y-54371477D01*
X119996421Y-54367801D01*
X120617779Y-54367801D01*
X120655101Y-54371477D01*
X120692423Y-54367801D01*
X120692434Y-54367801D01*
X120804087Y-54356804D01*
X120947348Y-54313347D01*
X121079377Y-54242775D01*
X121195102Y-54147802D01*
X121218905Y-54118798D01*
X121237703Y-54100000D01*
X122318501Y-54100000D01*
X122318500Y-57523379D01*
X122299998Y-57508195D01*
X121938806Y-57147003D01*
X121915003Y-57117999D01*
X121799278Y-57023026D01*
X121667249Y-56952454D01*
X121523988Y-56908997D01*
X121412335Y-56898000D01*
X121412324Y-56898000D01*
X121375002Y-56894324D01*
X121337680Y-56898000D01*
X120714711Y-56898000D01*
X120670774Y-56854063D01*
X120501256Y-56740795D01*
X120312898Y-56662774D01*
X120112939Y-56623000D01*
X119909061Y-56623000D01*
X119709102Y-56662774D01*
X119520744Y-56740795D01*
X119351226Y-56854063D01*
X119207063Y-56998226D01*
X119093795Y-57167744D01*
X119015774Y-57356102D01*
X118976000Y-57556061D01*
X118976000Y-57759939D01*
X119015774Y-57959898D01*
X119093795Y-58148256D01*
X119207063Y-58317774D01*
X119351226Y-58461937D01*
X119520744Y-58575205D01*
X119709102Y-58653226D01*
X119909061Y-58693000D01*
X119977740Y-58693000D01*
X119976000Y-58710668D01*
X119976000Y-58710678D01*
X119972324Y-58748000D01*
X119976000Y-58785323D01*
X119976001Y-64018388D01*
X119934963Y-64059426D01*
X119821695Y-64228944D01*
X119743674Y-64417302D01*
X119729394Y-64489092D01*
X118766990Y-63526689D01*
X118766990Y-63447012D01*
X118770666Y-63409689D01*
X118766990Y-63372366D01*
X118766990Y-63372358D01*
X118755993Y-63260704D01*
X118712536Y-63117443D01*
X118708291Y-63109501D01*
X118641964Y-62985413D01*
X118570789Y-62898687D01*
X118546991Y-62869689D01*
X118517992Y-62845890D01*
X118095300Y-62423199D01*
X118095300Y-52462979D01*
X118242148Y-52541472D01*
%TA.AperFunction,Conductor*%
D24*
G36*
X118242148Y-52541472D02*
G01*
X118271058Y-52550242D01*
X118268324Y-52578000D01*
X118272001Y-52615333D01*
X118282998Y-52726986D01*
X118290226Y-52750815D01*
X118326454Y-52870246D01*
X118397026Y-53002276D01*
X118458776Y-53077518D01*
X118492000Y-53118001D01*
X118520998Y-53141799D01*
X118800417Y-53421218D01*
X118811604Y-53458098D01*
X118882176Y-53590128D01*
X118910176Y-53624246D01*
X118977149Y-53705853D01*
X119006153Y-53729656D01*
X119395295Y-54118798D01*
X119419098Y-54147802D01*
X119534823Y-54242775D01*
X119666852Y-54313347D01*
X119810113Y-54356804D01*
X119921766Y-54367801D01*
X119921775Y-54367801D01*
X119959098Y-54371477D01*
X119996421Y-54367801D01*
X120617779Y-54367801D01*
X120655101Y-54371477D01*
X120692423Y-54367801D01*
X120692434Y-54367801D01*
X120804087Y-54356804D01*
X120947348Y-54313347D01*
X121079377Y-54242775D01*
X121195102Y-54147802D01*
X121218905Y-54118798D01*
X121237703Y-54100000D01*
X122318501Y-54100000D01*
X122318500Y-57523379D01*
X122299998Y-57508195D01*
X121938806Y-57147003D01*
X121915003Y-57117999D01*
X121799278Y-57023026D01*
X121667249Y-56952454D01*
X121523988Y-56908997D01*
X121412335Y-56898000D01*
X121412324Y-56898000D01*
X121375002Y-56894324D01*
X121337680Y-56898000D01*
X120714711Y-56898000D01*
X120670774Y-56854063D01*
X120501256Y-56740795D01*
X120312898Y-56662774D01*
X120112939Y-56623000D01*
X119909061Y-56623000D01*
X119709102Y-56662774D01*
X119520744Y-56740795D01*
X119351226Y-56854063D01*
X119207063Y-56998226D01*
X119093795Y-57167744D01*
X119015774Y-57356102D01*
X118976000Y-57556061D01*
X118976000Y-57759939D01*
X119015774Y-57959898D01*
X119093795Y-58148256D01*
X119207063Y-58317774D01*
X119351226Y-58461937D01*
X119520744Y-58575205D01*
X119709102Y-58653226D01*
X119909061Y-58693000D01*
X119977740Y-58693000D01*
X119976000Y-58710668D01*
X119976000Y-58710678D01*
X119972324Y-58748000D01*
X119976000Y-58785323D01*
X119976001Y-64018388D01*
X119934963Y-64059426D01*
X119821695Y-64228944D01*
X119743674Y-64417302D01*
X119729394Y-64489092D01*
X118766990Y-63526689D01*
X118766990Y-63447012D01*
X118770666Y-63409689D01*
X118766990Y-63372366D01*
X118766990Y-63372358D01*
X118755993Y-63260704D01*
X118712536Y-63117443D01*
X118708291Y-63109501D01*
X118641964Y-62985413D01*
X118570789Y-62898687D01*
X118546991Y-62869689D01*
X118517992Y-62845890D01*
X118095300Y-62423199D01*
X118095300Y-52462979D01*
X118242148Y-52541472D01*
G37*
%TD.AperFunction*%
D23*
X122647051Y-59583949D02*
X122690365Y-59619496D01*
X124852196Y-61781328D01*
X124791700Y-61781328D01*
X124618446Y-61798392D01*
X124451850Y-61848928D01*
X124298314Y-61930995D01*
X124163738Y-62041438D01*
X124158358Y-62047994D01*
X124092885Y-61968215D01*
X123996194Y-61888863D01*
X123885880Y-61829898D01*
X123766182Y-61793588D01*
X123641700Y-61781328D01*
X123427450Y-61784400D01*
X123268700Y-61943150D01*
X123268700Y-63017400D01*
X123288700Y-63017400D01*
X123288700Y-63271400D01*
X123268700Y-63271400D01*
X123268700Y-63291400D01*
X123014700Y-63291400D01*
X123014700Y-63271400D01*
X122994700Y-63271400D01*
X122994700Y-63017400D01*
X123014700Y-63017400D01*
X123014700Y-61943150D01*
X122855950Y-61784400D01*
X122641700Y-61781328D01*
X122549001Y-61790458D01*
X122549001Y-59464475D01*
X122647051Y-59583949D01*
%TA.AperFunction,Conductor*%
D24*
G36*
X122647051Y-59583949D02*
G01*
X122690365Y-59619496D01*
X124852196Y-61781328D01*
X124791700Y-61781328D01*
X124618446Y-61798392D01*
X124451850Y-61848928D01*
X124298314Y-61930995D01*
X124163738Y-62041438D01*
X124158358Y-62047994D01*
X124092885Y-61968215D01*
X123996194Y-61888863D01*
X123885880Y-61829898D01*
X123766182Y-61793588D01*
X123641700Y-61781328D01*
X123427450Y-61784400D01*
X123268700Y-61943150D01*
X123268700Y-63017400D01*
X123288700Y-63017400D01*
X123288700Y-63271400D01*
X123268700Y-63271400D01*
X123268700Y-63291400D01*
X123014700Y-63291400D01*
X123014700Y-63271400D01*
X122994700Y-63271400D01*
X122994700Y-63017400D01*
X123014700Y-63017400D01*
X123014700Y-61943150D01*
X122855950Y-61784400D01*
X122641700Y-61781328D01*
X122549001Y-61790458D01*
X122549001Y-59464475D01*
X122647051Y-59583949D01*
G37*
%TD.AperFunction*%
D23*
X143298188Y-48707518D02*
X143285928Y-48832000D01*
X143285928Y-49832000D01*
X143298188Y-49956482D01*
X143334498Y-50076180D01*
X143393463Y-50186494D01*
X143472815Y-50283185D01*
X143532296Y-50332000D01*
X143472815Y-50380815D01*
X143393463Y-50477506D01*
X143342954Y-50572000D01*
X134285323Y-50572000D01*
X134248000Y-50568324D01*
X134210677Y-50572000D01*
X134210667Y-50572000D01*
X134099014Y-50582997D01*
X133955753Y-50626454D01*
X133823724Y-50697026D01*
X133707999Y-50791999D01*
X133684201Y-50820997D01*
X132745002Y-51760196D01*
X132715999Y-51783999D01*
X132679070Y-51828998D01*
X132621026Y-51899724D01*
X132550455Y-52031753D01*
X132550454Y-52031754D01*
X132506997Y-52175015D01*
X132496000Y-52286668D01*
X132496000Y-52286678D01*
X132492324Y-52324000D01*
X132496000Y-52361323D01*
X132496001Y-56327197D01*
X132200199Y-56623000D01*
X132138061Y-56623000D01*
X131938102Y-56662774D01*
X131847610Y-56700257D01*
X131813502Y-56587820D01*
X131754537Y-56477506D01*
X131675185Y-56380815D01*
X131615704Y-56332000D01*
X131675185Y-56283185D01*
X131754537Y-56186494D01*
X131813502Y-56076180D01*
X131849812Y-55956482D01*
X131862072Y-55832000D01*
X131862072Y-54832000D01*
X131849812Y-54707518D01*
X131813502Y-54587820D01*
X131754537Y-54477506D01*
X131675185Y-54380815D01*
X131615704Y-54332000D01*
X131675185Y-54283185D01*
X131754537Y-54186494D01*
X131813502Y-54076180D01*
X131849812Y-53956482D01*
X131862072Y-53832000D01*
X131862072Y-52832000D01*
X131849812Y-52707518D01*
X131813502Y-52587820D01*
X131754537Y-52477506D01*
X131675185Y-52380815D01*
X131615704Y-52332000D01*
X131675185Y-52283185D01*
X131754537Y-52186494D01*
X131813502Y-52076180D01*
X131849812Y-51956482D01*
X131862072Y-51832000D01*
X131862072Y-50832000D01*
X131849812Y-50707518D01*
X131813502Y-50587820D01*
X131754537Y-50477506D01*
X131675185Y-50380815D01*
X131615704Y-50332000D01*
X131675185Y-50283185D01*
X131754537Y-50186494D01*
X131813502Y-50076180D01*
X131849812Y-49956482D01*
X131862072Y-49832000D01*
X131862072Y-48832000D01*
X131849812Y-48707518D01*
X131842981Y-48685000D01*
X143305019Y-48685000D01*
X143298188Y-48707518D01*
%TA.AperFunction,Conductor*%
D24*
G36*
X143298188Y-48707518D02*
G01*
X143285928Y-48832000D01*
X143285928Y-49832000D01*
X143298188Y-49956482D01*
X143334498Y-50076180D01*
X143393463Y-50186494D01*
X143472815Y-50283185D01*
X143532296Y-50332000D01*
X143472815Y-50380815D01*
X143393463Y-50477506D01*
X143342954Y-50572000D01*
X134285323Y-50572000D01*
X134248000Y-50568324D01*
X134210677Y-50572000D01*
X134210667Y-50572000D01*
X134099014Y-50582997D01*
X133955753Y-50626454D01*
X133823724Y-50697026D01*
X133707999Y-50791999D01*
X133684201Y-50820997D01*
X132745002Y-51760196D01*
X132715999Y-51783999D01*
X132679070Y-51828998D01*
X132621026Y-51899724D01*
X132550455Y-52031753D01*
X132550454Y-52031754D01*
X132506997Y-52175015D01*
X132496000Y-52286668D01*
X132496000Y-52286678D01*
X132492324Y-52324000D01*
X132496000Y-52361323D01*
X132496001Y-56327197D01*
X132200199Y-56623000D01*
X132138061Y-56623000D01*
X131938102Y-56662774D01*
X131847610Y-56700257D01*
X131813502Y-56587820D01*
X131754537Y-56477506D01*
X131675185Y-56380815D01*
X131615704Y-56332000D01*
X131675185Y-56283185D01*
X131754537Y-56186494D01*
X131813502Y-56076180D01*
X131849812Y-55956482D01*
X131862072Y-55832000D01*
X131862072Y-54832000D01*
X131849812Y-54707518D01*
X131813502Y-54587820D01*
X131754537Y-54477506D01*
X131675185Y-54380815D01*
X131615704Y-54332000D01*
X131675185Y-54283185D01*
X131754537Y-54186494D01*
X131813502Y-54076180D01*
X131849812Y-53956482D01*
X131862072Y-53832000D01*
X131862072Y-52832000D01*
X131849812Y-52707518D01*
X131813502Y-52587820D01*
X131754537Y-52477506D01*
X131675185Y-52380815D01*
X131615704Y-52332000D01*
X131675185Y-52283185D01*
X131754537Y-52186494D01*
X131813502Y-52076180D01*
X131849812Y-51956482D01*
X131862072Y-51832000D01*
X131862072Y-50832000D01*
X131849812Y-50707518D01*
X131813502Y-50587820D01*
X131754537Y-50477506D01*
X131675185Y-50380815D01*
X131615704Y-50332000D01*
X131675185Y-50283185D01*
X131754537Y-50186494D01*
X131813502Y-50076180D01*
X131849812Y-49956482D01*
X131862072Y-49832000D01*
X131862072Y-48832000D01*
X131849812Y-48707518D01*
X131842981Y-48685000D01*
X143305019Y-48685000D01*
X143298188Y-48707518D01*
G37*
%TD.AperFunction*%
D23*
X142838999Y-52184669D02*
X142838999Y-52184679D01*
X142835323Y-52222001D01*
X142838999Y-52259324D01*
X142839000Y-56404667D01*
X142835323Y-56441999D01*
X142839000Y-56479332D01*
X142849997Y-56590985D01*
X142860756Y-56626454D01*
X142866079Y-56644000D01*
X134721711Y-56644000D01*
X134677774Y-56600063D01*
X134508256Y-56486795D01*
X134319898Y-56408774D01*
X134119939Y-56369000D01*
X134016000Y-56369000D01*
X134016000Y-52638801D01*
X134562802Y-52092000D01*
X142848126Y-52092000D01*
X142838999Y-52184669D01*
%TA.AperFunction,Conductor*%
D24*
G36*
X142838999Y-52184669D02*
G01*
X142838999Y-52184679D01*
X142835323Y-52222001D01*
X142838999Y-52259324D01*
X142839000Y-56404667D01*
X142835323Y-56441999D01*
X142839000Y-56479332D01*
X142849997Y-56590985D01*
X142860756Y-56626454D01*
X142866079Y-56644000D01*
X134721711Y-56644000D01*
X134677774Y-56600063D01*
X134508256Y-56486795D01*
X134319898Y-56408774D01*
X134119939Y-56369000D01*
X134016000Y-56369000D01*
X134016000Y-52638801D01*
X134562802Y-52092000D01*
X142848126Y-52092000D01*
X142838999Y-52184669D01*
G37*
%TD.AperFunction*%
D23*
X121190998Y-52580000D02*
X121083250Y-52580000D01*
X121190998Y-52472252D01*
X121190998Y-52580000D01*
%TA.AperFunction,Conductor*%
D24*
G36*
X121190998Y-52580000D02*
G01*
X121083250Y-52580000D01*
X121190998Y-52472252D01*
X121190998Y-52580000D01*
G37*
%TD.AperFunction*%
D23*
X121465000Y-51623000D02*
X121445000Y-51623000D01*
X121445000Y-51643000D01*
X121191000Y-51643000D01*
X121191000Y-51623000D01*
X121171000Y-51623000D01*
X121171000Y-51380990D01*
X121465000Y-51380990D01*
X121465000Y-51623000D01*
%TA.AperFunction,Conductor*%
D24*
G36*
X121465000Y-51623000D02*
G01*
X121445000Y-51623000D01*
X121445000Y-51643000D01*
X121191000Y-51643000D01*
X121191000Y-51623000D01*
X121171000Y-51623000D01*
X121171000Y-51380990D01*
X121465000Y-51380990D01*
X121465000Y-51623000D01*
G37*
%TD.AperFunction*%
D23*
X117954038Y-48743038D02*
X117843595Y-48877613D01*
X117761528Y-49031148D01*
X117718846Y-49171852D01*
X116685000Y-50205699D01*
X116685000Y-48685000D01*
X118024757Y-48685000D01*
X117954038Y-48743038D01*
%TA.AperFunction,Conductor*%
D24*
G36*
X117954038Y-48743038D02*
G01*
X117843595Y-48877613D01*
X117761528Y-49031148D01*
X117718846Y-49171852D01*
X116685000Y-50205699D01*
X116685000Y-48685000D01*
X118024757Y-48685000D01*
X117954038Y-48743038D01*
G37*
%TD.AperFunction*%
%TD*%
M02*
