M48
; DRILL file {KiCad 5.1.9+dfsg1-1} date Tue May 25 18:36:30 2021
; FORMAT={-:-/ absolute / inch / decimal}
; #@! TF.CreationDate,2021-05-25T18:36:30+02:00
; #@! TF.GenerationSoftware,Kicad,Pcbnew,5.1.9+dfsg1-1
; #@! TF.FileFunction,Plated,1,2,PTH
FMAT,2
INCH
T1C0.0157
T2C0.0295
T3C0.0315
T4C0.0354
T5C0.0394
%
G90
G05
T1
X4.5955Y-3.8145
X4.614Y-1.942
X4.6755Y-3.9255
X4.696Y-2.153
X4.7248Y-2.415
X4.7248Y-2.27
X4.7365Y-4.126
X4.7535Y-2.548
X4.7663Y-2.3
X4.7685Y-4.429
X4.775Y-2.0715
X4.8385Y-2.8435
X4.849Y-2.422
X4.9245Y-2.2355
X4.965Y-2.34
X4.998Y-2.5785
X4.999Y-2.021
X5.003Y-2.1785
X5.0225Y-2.334
X5.036Y-2.2225
X5.2063Y-2.27
X5.2075Y-2.4795
X5.212Y-2.4195
X5.2763Y-2.26
X5.295Y-2.474
X5.3769Y-2.4669
X5.4605Y-2.3735
X5.4695Y-2.7145
X5.567Y-1.98
X5.5715Y-3.514
X5.5805Y-2.1605
X5.688Y-2.7165
X5.8715Y-1.985
T2
X4.9635Y-3.8675
X4.9635Y-3.9175
X4.9635Y-3.9675
T3
X4.9111Y-2.764
X5.0095Y-2.764
T4
X5.9063Y-2.13
X6.0063Y-2.13
X6.1063Y-2.13
T5
X4.6461Y-2.614
X4.6461Y-2.714
X4.6461Y-2.814
X4.6461Y-2.914
X4.6461Y-3.014
X4.6461Y-3.114
X4.6565Y-4.265
X4.7565Y-4.265
X4.8365Y-4.579
X4.9365Y-4.579
X5.0365Y-4.579
X5.1365Y-4.579
X5.2365Y-4.579
X5.3365Y-4.579
X5.4365Y-4.579
X5.5365Y-4.579
X5.6365Y-4.579
X5.7365Y-4.579
X5.8365Y-4.579
X5.9365Y-4.579
T0
M30
