%TF.GenerationSoftware,KiCad,Pcbnew,5.1.9+dfsg1-1*%
%TF.CreationDate,2021-05-25T18:36:33+02:00*%
%TF.ProjectId,vscp-din-wireless-esp8266-flat,76736370-2d64-4696-9e2d-776972656c65,rev?*%
%TF.SameCoordinates,Original*%
%TF.FileFunction,Soldermask,Bot*%
%TF.FilePolarity,Negative*%
%FSLAX46Y46*%
G04 Gerber Fmt 4.6, Leading zero omitted, Abs format (unit mm)*
G04 Created by KiCad (PCBNEW 5.1.9+dfsg1-1) date 2021-05-25 18:36:33*
%MOMM*%
%LPD*%
G01*
G04 APERTURE LIST*
%ADD10C,0.300000*%
%ADD11O,1.700000X1.700000*%
%ADD12R,1.700000X1.700000*%
%ADD13R,1.500000X1.050000*%
%ADD14O,1.500000X1.050000*%
%ADD15C,1.800000*%
%ADD16R,1.800000X1.800000*%
%ADD17C,1.600000*%
%ADD18R,1.600000X1.600000*%
G04 APERTURE END LIST*
D10*
X147607657Y-91320000D02*
X147750514Y-91248571D01*
X147964800Y-91248571D01*
X148179085Y-91320000D01*
X148321942Y-91462857D01*
X148393371Y-91605714D01*
X148464800Y-91891428D01*
X148464800Y-92105714D01*
X148393371Y-92391428D01*
X148321942Y-92534285D01*
X148179085Y-92677142D01*
X147964800Y-92748571D01*
X147821942Y-92748571D01*
X147607657Y-92677142D01*
X147536228Y-92605714D01*
X147536228Y-92105714D01*
X147821942Y-92105714D01*
X146893371Y-92748571D02*
X146893371Y-91748571D01*
X146893371Y-92034285D02*
X146821942Y-91891428D01*
X146750514Y-91820000D01*
X146607657Y-91748571D01*
X146464800Y-91748571D01*
X145750514Y-92748571D02*
X145893371Y-92677142D01*
X145964800Y-92605714D01*
X146036228Y-92462857D01*
X146036228Y-92034285D01*
X145964800Y-91891428D01*
X145893371Y-91820000D01*
X145750514Y-91748571D01*
X145536228Y-91748571D01*
X145393371Y-91820000D01*
X145321942Y-91891428D01*
X145250514Y-92034285D01*
X145250514Y-92462857D01*
X145321942Y-92605714D01*
X145393371Y-92677142D01*
X145536228Y-92748571D01*
X145750514Y-92748571D01*
X143964800Y-92748571D02*
X143964800Y-91248571D01*
X143964800Y-92677142D02*
X144107657Y-92748571D01*
X144393371Y-92748571D01*
X144536228Y-92677142D01*
X144607657Y-92605714D01*
X144679085Y-92462857D01*
X144679085Y-92034285D01*
X144607657Y-91891428D01*
X144536228Y-91820000D01*
X144393371Y-91748571D01*
X144107657Y-91748571D01*
X143964800Y-91820000D01*
X142607657Y-92748571D02*
X142607657Y-91962857D01*
X142679085Y-91820000D01*
X142821942Y-91748571D01*
X143107657Y-91748571D01*
X143250514Y-91820000D01*
X142607657Y-92677142D02*
X142750514Y-92748571D01*
X143107657Y-92748571D01*
X143250514Y-92677142D01*
X143321942Y-92534285D01*
X143321942Y-92391428D01*
X143250514Y-92248571D01*
X143107657Y-92177142D01*
X142750514Y-92177142D01*
X142607657Y-92105714D01*
X141893371Y-91748571D02*
X141893371Y-92748571D01*
X141893371Y-91891428D02*
X141821942Y-91820000D01*
X141679085Y-91748571D01*
X141464800Y-91748571D01*
X141321942Y-91820000D01*
X141250514Y-91962857D01*
X141250514Y-92748571D01*
X140607657Y-92677142D02*
X140464800Y-92748571D01*
X140179085Y-92748571D01*
X140036228Y-92677142D01*
X139964800Y-92534285D01*
X139964800Y-92462857D01*
X140036228Y-92320000D01*
X140179085Y-92248571D01*
X140393371Y-92248571D01*
X140536228Y-92177142D01*
X140607657Y-92034285D01*
X140607657Y-91962857D01*
X140536228Y-91820000D01*
X140393371Y-91748571D01*
X140179085Y-91748571D01*
X140036228Y-91820000D01*
X138179085Y-92748571D02*
X138179085Y-91248571D01*
X137607657Y-91248571D01*
X137464800Y-91320000D01*
X137393371Y-91391428D01*
X137321942Y-91534285D01*
X137321942Y-91748571D01*
X137393371Y-91891428D01*
X137464800Y-91962857D01*
X137607657Y-92034285D01*
X138179085Y-92034285D01*
X136036228Y-92748571D02*
X136036228Y-91962857D01*
X136107657Y-91820000D01*
X136250514Y-91748571D01*
X136536228Y-91748571D01*
X136679085Y-91820000D01*
X136036228Y-92677142D02*
X136179085Y-92748571D01*
X136536228Y-92748571D01*
X136679085Y-92677142D01*
X136750514Y-92534285D01*
X136750514Y-92391428D01*
X136679085Y-92248571D01*
X136536228Y-92177142D01*
X136179085Y-92177142D01*
X136036228Y-92105714D01*
X135321942Y-92748571D02*
X135321942Y-91748571D01*
X135321942Y-92034285D02*
X135250514Y-91891428D01*
X135179085Y-91820000D01*
X135036228Y-91748571D01*
X134893371Y-91748571D01*
X133750514Y-92748571D02*
X133750514Y-91962857D01*
X133821942Y-91820000D01*
X133964800Y-91748571D01*
X134250514Y-91748571D01*
X134393371Y-91820000D01*
X133750514Y-92677142D02*
X133893371Y-92748571D01*
X134250514Y-92748571D01*
X134393371Y-92677142D01*
X134464800Y-92534285D01*
X134464800Y-92391428D01*
X134393371Y-92248571D01*
X134250514Y-92177142D01*
X133893371Y-92177142D01*
X133750514Y-92105714D01*
X132393371Y-92748571D02*
X132393371Y-91248571D01*
X132393371Y-92677142D02*
X132536228Y-92748571D01*
X132821942Y-92748571D01*
X132964800Y-92677142D01*
X133036228Y-92605714D01*
X133107657Y-92462857D01*
X133107657Y-92034285D01*
X133036228Y-91891428D01*
X132964800Y-91820000D01*
X132821942Y-91748571D01*
X132536228Y-91748571D01*
X132393371Y-91820000D01*
X131679085Y-92748571D02*
X131679085Y-91748571D01*
X131679085Y-91248571D02*
X131750514Y-91320000D01*
X131679085Y-91391428D01*
X131607657Y-91320000D01*
X131679085Y-91248571D01*
X131679085Y-91391428D01*
X131036228Y-92677142D02*
X130893371Y-92748571D01*
X130607657Y-92748571D01*
X130464800Y-92677142D01*
X130393371Y-92534285D01*
X130393371Y-92462857D01*
X130464800Y-92320000D01*
X130607657Y-92248571D01*
X130821942Y-92248571D01*
X130964800Y-92177142D01*
X131036228Y-92034285D01*
X131036228Y-91962857D01*
X130964800Y-91820000D01*
X130821942Y-91748571D01*
X130607657Y-91748571D01*
X130464800Y-91820000D01*
X128679085Y-92320000D02*
X127964800Y-92320000D01*
X128821942Y-92748571D02*
X128321942Y-91248571D01*
X127821942Y-92748571D01*
X126821942Y-91962857D02*
X126607657Y-92034285D01*
X126536228Y-92105714D01*
X126464800Y-92248571D01*
X126464800Y-92462857D01*
X126536228Y-92605714D01*
X126607657Y-92677142D01*
X126750514Y-92748571D01*
X127321942Y-92748571D01*
X127321942Y-91248571D01*
X126821942Y-91248571D01*
X126679085Y-91320000D01*
X126607657Y-91391428D01*
X126536228Y-91534285D01*
X126536228Y-91677142D01*
X126607657Y-91820000D01*
X126679085Y-91891428D01*
X126821942Y-91962857D01*
X127321942Y-91962857D01*
X155857657Y-95298571D02*
X155857657Y-93798571D01*
X155214800Y-95298571D02*
X155214800Y-94512857D01*
X155286228Y-94370000D01*
X155429085Y-94298571D01*
X155643371Y-94298571D01*
X155786228Y-94370000D01*
X155857657Y-94441428D01*
X154714800Y-94298571D02*
X154143371Y-94298571D01*
X154500514Y-93798571D02*
X154500514Y-95084285D01*
X154429085Y-95227142D01*
X154286228Y-95298571D01*
X154143371Y-95298571D01*
X153857657Y-94298571D02*
X153286228Y-94298571D01*
X153643371Y-93798571D02*
X153643371Y-95084285D01*
X153571942Y-95227142D01*
X153429085Y-95298571D01*
X153286228Y-95298571D01*
X152786228Y-94298571D02*
X152786228Y-95798571D01*
X152786228Y-94370000D02*
X152643371Y-94298571D01*
X152357657Y-94298571D01*
X152214800Y-94370000D01*
X152143371Y-94441428D01*
X152071942Y-94584285D01*
X152071942Y-95012857D01*
X152143371Y-95155714D01*
X152214800Y-95227142D01*
X152357657Y-95298571D01*
X152643371Y-95298571D01*
X152786228Y-95227142D01*
X151500514Y-95227142D02*
X151357657Y-95298571D01*
X151071942Y-95298571D01*
X150929085Y-95227142D01*
X150857657Y-95084285D01*
X150857657Y-95012857D01*
X150929085Y-94870000D01*
X151071942Y-94798571D01*
X151286228Y-94798571D01*
X151429085Y-94727142D01*
X151500514Y-94584285D01*
X151500514Y-94512857D01*
X151429085Y-94370000D01*
X151286228Y-94298571D01*
X151071942Y-94298571D01*
X150929085Y-94370000D01*
X150214800Y-95155714D02*
X150143371Y-95227142D01*
X150214800Y-95298571D01*
X150286228Y-95227142D01*
X150214800Y-95155714D01*
X150214800Y-95298571D01*
X150214800Y-94370000D02*
X150143371Y-94441428D01*
X150214800Y-94512857D01*
X150286228Y-94441428D01*
X150214800Y-94370000D01*
X150214800Y-94512857D01*
X148429085Y-93727142D02*
X149714800Y-95655714D01*
X146857657Y-93727142D02*
X148143371Y-95655714D01*
X146500514Y-94298571D02*
X146214800Y-95298571D01*
X145929085Y-94584285D01*
X145643371Y-95298571D01*
X145357657Y-94298571D01*
X144929085Y-94298571D02*
X144643371Y-95298571D01*
X144357657Y-94584285D01*
X144071942Y-95298571D01*
X143786228Y-94298571D01*
X143357657Y-94298571D02*
X143071942Y-95298571D01*
X142786228Y-94584285D01*
X142500514Y-95298571D01*
X142214800Y-94298571D01*
X141643371Y-95155714D02*
X141571942Y-95227142D01*
X141643371Y-95298571D01*
X141714800Y-95227142D01*
X141643371Y-95155714D01*
X141643371Y-95298571D01*
X140286228Y-94298571D02*
X140286228Y-95512857D01*
X140357657Y-95655714D01*
X140429085Y-95727142D01*
X140571942Y-95798571D01*
X140786228Y-95798571D01*
X140929085Y-95727142D01*
X140286228Y-95227142D02*
X140429085Y-95298571D01*
X140714800Y-95298571D01*
X140857657Y-95227142D01*
X140929085Y-95155714D01*
X141000514Y-95012857D01*
X141000514Y-94584285D01*
X140929085Y-94441428D01*
X140857657Y-94370000D01*
X140714800Y-94298571D01*
X140429085Y-94298571D01*
X140286228Y-94370000D01*
X139571942Y-95298571D02*
X139571942Y-94298571D01*
X139571942Y-94584285D02*
X139500514Y-94441428D01*
X139429085Y-94370000D01*
X139286228Y-94298571D01*
X139143371Y-94298571D01*
X138429085Y-95298571D02*
X138571942Y-95227142D01*
X138643371Y-95155714D01*
X138714800Y-95012857D01*
X138714800Y-94584285D01*
X138643371Y-94441428D01*
X138571942Y-94370000D01*
X138429085Y-94298571D01*
X138214800Y-94298571D01*
X138071942Y-94370000D01*
X138000514Y-94441428D01*
X137929085Y-94584285D01*
X137929085Y-95012857D01*
X138000514Y-95155714D01*
X138071942Y-95227142D01*
X138214800Y-95298571D01*
X138429085Y-95298571D01*
X136643371Y-95298571D02*
X136643371Y-93798571D01*
X136643371Y-95227142D02*
X136786228Y-95298571D01*
X137071942Y-95298571D01*
X137214800Y-95227142D01*
X137286228Y-95155714D01*
X137357657Y-95012857D01*
X137357657Y-94584285D01*
X137286228Y-94441428D01*
X137214800Y-94370000D01*
X137071942Y-94298571D01*
X136786228Y-94298571D01*
X136643371Y-94370000D01*
X135286228Y-95298571D02*
X135286228Y-94512857D01*
X135357657Y-94370000D01*
X135500514Y-94298571D01*
X135786228Y-94298571D01*
X135929085Y-94370000D01*
X135286228Y-95227142D02*
X135429085Y-95298571D01*
X135786228Y-95298571D01*
X135929085Y-95227142D01*
X136000514Y-95084285D01*
X136000514Y-94941428D01*
X135929085Y-94798571D01*
X135786228Y-94727142D01*
X135429085Y-94727142D01*
X135286228Y-94655714D01*
X134571942Y-94298571D02*
X134571942Y-95298571D01*
X134571942Y-94441428D02*
X134500514Y-94370000D01*
X134357657Y-94298571D01*
X134143371Y-94298571D01*
X134000514Y-94370000D01*
X133929085Y-94512857D01*
X133929085Y-95298571D01*
X133286228Y-95227142D02*
X133143371Y-95298571D01*
X132857657Y-95298571D01*
X132714800Y-95227142D01*
X132643371Y-95084285D01*
X132643371Y-95012857D01*
X132714800Y-94870000D01*
X132857657Y-94798571D01*
X133071942Y-94798571D01*
X133214800Y-94727142D01*
X133286228Y-94584285D01*
X133286228Y-94512857D01*
X133214800Y-94370000D01*
X133071942Y-94298571D01*
X132857657Y-94298571D01*
X132714800Y-94370000D01*
X132000514Y-94298571D02*
X132000514Y-95798571D01*
X132000514Y-94370000D02*
X131857657Y-94298571D01*
X131571942Y-94298571D01*
X131429085Y-94370000D01*
X131357657Y-94441428D01*
X131286228Y-94584285D01*
X131286228Y-95012857D01*
X131357657Y-95155714D01*
X131429085Y-95227142D01*
X131571942Y-95298571D01*
X131857657Y-95298571D01*
X132000514Y-95227142D01*
X130000514Y-95298571D02*
X130000514Y-94512857D01*
X130071942Y-94370000D01*
X130214800Y-94298571D01*
X130500514Y-94298571D01*
X130643371Y-94370000D01*
X130000514Y-95227142D02*
X130143371Y-95298571D01*
X130500514Y-95298571D01*
X130643371Y-95227142D01*
X130714800Y-95084285D01*
X130714800Y-94941428D01*
X130643371Y-94798571D01*
X130500514Y-94727142D01*
X130143371Y-94727142D01*
X130000514Y-94655714D01*
X129286228Y-95298571D02*
X129286228Y-94298571D01*
X129286228Y-94584285D02*
X129214800Y-94441428D01*
X129143371Y-94370000D01*
X129000514Y-94298571D01*
X128857657Y-94298571D01*
X127714800Y-95298571D02*
X127714800Y-94512857D01*
X127786228Y-94370000D01*
X127929085Y-94298571D01*
X128214800Y-94298571D01*
X128357657Y-94370000D01*
X127714800Y-95227142D02*
X127857657Y-95298571D01*
X128214800Y-95298571D01*
X128357657Y-95227142D01*
X128429085Y-95084285D01*
X128429085Y-94941428D01*
X128357657Y-94798571D01*
X128214800Y-94727142D01*
X127857657Y-94727142D01*
X127714800Y-94655714D01*
X126357657Y-95298571D02*
X126357657Y-93798571D01*
X126357657Y-95227142D02*
X126500514Y-95298571D01*
X126786228Y-95298571D01*
X126929085Y-95227142D01*
X127000514Y-95155714D01*
X127071942Y-95012857D01*
X127071942Y-94584285D01*
X127000514Y-94441428D01*
X126929085Y-94370000D01*
X126786228Y-94298571D01*
X126500514Y-94298571D01*
X126357657Y-94370000D01*
X125643371Y-95298571D02*
X125643371Y-94298571D01*
X125643371Y-93798571D02*
X125714800Y-93870000D01*
X125643371Y-93941428D01*
X125571942Y-93870000D01*
X125643371Y-93798571D01*
X125643371Y-93941428D01*
X125000514Y-95227142D02*
X124857657Y-95298571D01*
X124571942Y-95298571D01*
X124429085Y-95227142D01*
X124357657Y-95084285D01*
X124357657Y-95012857D01*
X124429085Y-94870000D01*
X124571942Y-94798571D01*
X124786228Y-94798571D01*
X124929085Y-94727142D01*
X125000514Y-94584285D01*
X125000514Y-94512857D01*
X124929085Y-94370000D01*
X124786228Y-94298571D01*
X124571942Y-94298571D01*
X124429085Y-94370000D01*
X123714800Y-95155714D02*
X123643371Y-95227142D01*
X123714800Y-95298571D01*
X123786228Y-95227142D01*
X123714800Y-95155714D01*
X123714800Y-95298571D01*
X122357657Y-95227142D02*
X122500514Y-95298571D01*
X122786228Y-95298571D01*
X122929085Y-95227142D01*
X123000514Y-95155714D01*
X123071942Y-95012857D01*
X123071942Y-94584285D01*
X123000514Y-94441428D01*
X122929085Y-94370000D01*
X122786228Y-94298571D01*
X122500514Y-94298571D01*
X122357657Y-94370000D01*
X121500514Y-95298571D02*
X121643371Y-95227142D01*
X121714800Y-95155714D01*
X121786228Y-95012857D01*
X121786228Y-94584285D01*
X121714800Y-94441428D01*
X121643371Y-94370000D01*
X121500514Y-94298571D01*
X121286228Y-94298571D01*
X121143371Y-94370000D01*
X121071942Y-94441428D01*
X121000514Y-94584285D01*
X121000514Y-95012857D01*
X121071942Y-95155714D01*
X121143371Y-95227142D01*
X121286228Y-95298571D01*
X121500514Y-95298571D01*
X120357657Y-95298571D02*
X120357657Y-94298571D01*
X120357657Y-94441428D02*
X120286228Y-94370000D01*
X120143371Y-94298571D01*
X119929085Y-94298571D01*
X119786228Y-94370000D01*
X119714800Y-94512857D01*
X119714800Y-95298571D01*
X119714800Y-94512857D02*
X119643371Y-94370000D01*
X119500514Y-94298571D01*
X119286228Y-94298571D01*
X119143371Y-94370000D01*
X119071942Y-94512857D01*
X119071942Y-95298571D01*
D11*
%TO.C,J1*%
X150787100Y-116306600D03*
X148247100Y-116306600D03*
X145707100Y-116306600D03*
X143167100Y-116306600D03*
X140627100Y-116306600D03*
X138087100Y-116306600D03*
X135547100Y-116306600D03*
X133007100Y-116306600D03*
X130467100Y-116306600D03*
X127927100Y-116306600D03*
X125387100Y-116306600D03*
D12*
X122847100Y-116306600D03*
%TD*%
D13*
%TO.C,Q1*%
X126072900Y-98234500D03*
D14*
X126072900Y-100774500D03*
X126072900Y-99504500D03*
%TD*%
D11*
%TO.C,J4*%
X118275100Y-108331000D03*
D12*
X120815100Y-108331000D03*
%TD*%
D15*
%TO.C,D1*%
X155100000Y-54102000D03*
X152560000Y-54102000D03*
D16*
X150020000Y-54102000D03*
%TD*%
D17*
%TO.C,C2*%
X124741300Y-70205600D03*
D18*
X127241300Y-70205600D03*
%TD*%
D12*
%TO.C,J3*%
X118010600Y-66395000D03*
D11*
X118010600Y-68935000D03*
X118010600Y-71475000D03*
X118010600Y-74015000D03*
X118010600Y-76555000D03*
X118010600Y-79095000D03*
%TD*%
M02*
